<svg xmlns="http://www.w3.org/2000/svg" xmlns:xlink="http://www.w3.org/1999/xlink" width="414" height="831" viewBox="0 0 414 831">
  <defs>
    <filter id="Caminho_7443" x="127" y="573" width="160" height="160" filterUnits="userSpaceOnUse">
      <feOffset dy="3" input="SourceAlpha"/>
      <feGaussianBlur stdDeviation="10" result="blur"/>
      <feFlood flood-color="#e2306c" flood-opacity="0.69"/>
      <feComposite operator="in" in2="blur"/>
      <feComposite in="SourceGraphic"/>
    </filter>
    <clipPath id="clip-Reset-senha-3_1">
      <rect width="414" height="831"/>
    </clipPath>
  </defs>
  <g id="Reset-senha-3_1" data-name="Reset-senha-3 – 1" clip-path="url(#clip-Reset-senha-3_1)">
    <rect width="414" height="831" fill="#320995"/>
    <text id="_Bangeek.ltda" data-name="® Bangeek.ltda" transform="translate(161 769)" fill="#fff" font-size="12" font-family="Montserrat-Regular, Montserrat"><tspan x="0" y="0">® Bangeek.ltda</tspan></text>
    <g id="Grupo_484" data-name="Grupo 484" transform="translate(-4 5)">
      <g id="Grupo_483" data-name="Grupo 483" transform="translate(414.781 575.5) rotate(180)">
        <path id="Caminho_2382" data-name="Caminho 2382" d="M4435.513-2851.89l9.068,9.068-9.068,9.068" transform="translate(-4067.766 3378.822)" fill="none" stroke="#c8c7c7" stroke-linecap="round" stroke-width="3"/>
      </g>
    </g>
    <text id="Recuperar_senha" data-name="Recuperar senha" transform="translate(133 201)" fill="#fff" font-size="20" font-family="Roboto-Regular, Roboto"><tspan x="0" y="0">Recuperar senha</tspan></text>
    <text id="Informe_seu_documento_e_email_para_recuperar_seu_acesso_a_conta." data-name="Informe seu documento e email
para recuperar seu acesso a conta." transform="translate(207 232)" fill="#fff" font-size="12" font-family="Montserrat-Regular, Montserrat"><tspan x="-96.636" y="0">Informe seu documento e email</tspan><tspan x="-103.362" y="15">para recuperar seu acesso a conta.</tspan></text>
    <g id="Grupo_20282" data-name="Grupo 20282" transform="translate(5 -55)">
      <rect id="Retângulo_235" data-name="Retângulo 235" width="328" height="60" rx="10" transform="translate(38 325)" fill="#5b31c1"/>
      <text id="CPF" transform="translate(61 361)" fill="#fff" font-size="14" font-family="Roboto-Regular, Roboto"><tspan x="0" y="0">CPF</tspan></text>
    </g>
    <g id="Grupo_20283" data-name="Grupo 20283" transform="translate(5 25)">
      <rect id="Retângulo_235-2" data-name="Retângulo 235" width="328" height="60" rx="10" transform="translate(38 325)" fill="#5b31c1"/>
      <text id="E-MAIL" transform="translate(61 361)" fill="#fff" font-size="14" font-family="Roboto-Regular, Roboto"><tspan x="0" y="0">E-MAIL</tspan></text>
    </g>
    <g id="right-button" transform="translate(157 600)">
      <g transform="matrix(1, 0, 0, 1, -157, -600)" filter="url(#Caminho_7443)">
        <g id="Caminho_7443-2" data-name="Caminho 7443" transform="translate(157 600)" fill="#e2306c">
          <path d="M 90 99.5 L 10 99.5 C 4.761680126190186 99.5 0.5 95.23831939697266 0.5 90 L 0.5 10 C 0.5 4.761680126190186 4.761680126190186 0.5 10 0.5 L 90 0.5 C 95.23831939697266 0.5 99.5 4.761680126190186 99.5 10 L 99.5 90 C 99.5 95.23831939697266 95.23831939697266 99.5 90 99.5 Z" stroke="none"/>
          <path d="M 10 1 C 5.037384033203125 1 1 5.037384033203125 1 10 L 1 90 C 1 94.96261596679688 5.037384033203125 99 10 99 L 90 99 C 94.96261596679688 99 99 94.96261596679688 99 90 L 99 10 C 99 5.037384033203125 94.96261596679688 1 90 1 L 10 1 M 10 0 L 90 0 C 95.52285003662109 0 100 4.477149963378906 100 10 L 100 90 C 100 95.52285003662109 95.52285003662109 100 90 100 L 10 100 C 4.477149963378906 100 0 95.52285003662109 0 90 L 0 10 C 0 4.477149963378906 4.477149963378906 0 10 0 Z" stroke="none" fill="#ff4e8a"/>
        </g>
      </g>
      <path id="Caminho_7456" data-name="Caminho 7456" d="M-1780-22541.865l19.021,19.021-19.021,19.021" transform="translate(1820.489 22572.844)" fill="none" stroke="#fff" stroke-linecap="round" stroke-width="3"/>
    </g>
    <text id="_1_3" data-name="1/3" transform="translate(377 48)" fill="#fff" font-size="14" font-family="ArialMT, Arial"><tspan x="0" y="0">1/3</tspan></text>
    <g id="Grupo_20872" data-name="Grupo 20872" transform="translate(0 2)">
      <rect id="Retângulo_322" data-name="Retângulo 322" width="113" height="9" transform="translate(0 -2)" fill="#e2306c"/>
      <rect id="Retângulo_323" data-name="Retângulo 323" width="301" height="9" transform="translate(113 -2)" fill="#8d8d8d"/>
    </g>
    <g id="icon" transform="translate(144 100)">
      <g id="Caminho_7510" data-name="Caminho 7510" fill="none">
        <path d="M25.555,0a25.822,25.822,0,0,1,21.24,11.316c1.759,2.472,45.271.463,71.736,3.879-.009,0,.564.075,1.127.156,10.292,1.472,3.31,18.287,3.31,19.953,0,.644-8.224.914-8.224.914s-5.711,9.953-8.58,9.875c-3.608-.1-6.088-10.25-11.149-10.471-4.193-.183-9.4-.43-14.749-.668-2.393-.107-5.546,8.964-8.474,8.852-2.876-.11-8.7-9.47-8.7-9.47s-13.555,0-13.935.967A25.545,25.545,0,1,1,25.555,0Z" stroke="none"/>
        <path d="M 25.55462646484375 5 C 20.06227111816406 5 14.89918518066406 7.133708953857422 11.01651763916016 11.00808334350586 C 7.136711120605469 14.87960433959961 5 20.02626991271973 5 25.5 C 5 30.97373008728027 7.136711120605469 36.12039566040039 11.01651763916016 39.99191665649414 C 14.89918518066406 43.86629104614258 20.06227111816406 46 25.55462646484375 46 C 29.7691650390625 46 33.83129119873047 44.74723052978516 37.30187225341797 42.37712478637695 C 40.5850830078125 40.13497924804688 43.13831329345703 36.98039627075195 44.49122619628906 33.49446105957031 L 44.4964599609375 33.48101806640625 C 45.73739624023438 30.31072998046875 49.00908660888672 29.97304153442383 50.96383666992188 29.77127075195312 C 52.24143981933594 29.63939666748047 53.95358276367188 29.5348949432373 56.05271148681641 29.46066665649414 C 59.53733062744141 29.33745765686035 62.94354248046875 29.3360424041748 63.08724975585938 29.3360424041748 L 65.86233520507812 29.33799934387207 L 67.33058166503906 31.69139671325684 C 67.341064453125 31.70818710327148 68.39382934570312 33.39162445068359 69.76454162597656 35.24143981933594 C 70.458251953125 36.17760467529297 71.04052734375 36.8967170715332 71.51712036132812 37.445556640625 C 71.78907775878906 37.03870391845703 72.04664611816406 36.64073181152344 72.24562072753906 36.33327102661133 C 74.27581787109375 33.19626998901367 76.3751220703125 29.95245742797852 80.22268676757812 29.95245742797852 C 80.31146240234375 29.95245742797852 80.40131378173828 29.9544792175293 80.48710632324219 29.95833396911621 C 82.983642578125 30.06947898864746 85.42861938476562 30.18160438537598 87.79310607910156 30.29001998901367 C 90.47043609619141 30.41277122497559 92.99929046630859 30.52872848510742 95.23231506347656 30.62614631652832 C 100.5287933349609 30.85743713378906 103.5343933105469 35.44329071044922 105.72900390625 38.791748046875 C 105.908447265625 39.06554794311523 106.1251449584961 39.39618301391602 106.3516464233398 39.73302841186523 C 106.8193969726562 39.15682601928711 107.3919143676758 38.39825820922852 108.0736465454102 37.40652084350586 C 109.3936462402344 35.48627090454102 110.3979187011719 33.74424743652344 110.4067916870117 33.72883605957031 L 111.7938766479492 31.31168746948242 L 114.579231262207 31.22016716003418 C 116.0675506591797 31.1712474822998 117.6438293457031 31.08243942260742 118.9069213867188 30.98381996154785 C 119.3634338378906 29.33279800415039 119.9153442382812 27.18002510070801 120.157356262207 25.1155834197998 C 120.5311279296875 21.92739677429199 119.9508972167969 20.84537506103516 119.8307952880859 20.66085433959961 C 119.7804565429688 20.58354187011719 119.6626052856445 20.40245819091797 118.9488372802734 20.30037498474121 C 118.4681015014648 20.23160362243652 117.9923934936523 20.16672897338867 117.9150009155273 20.15677070617676 C 118.0254592895508 20.17099952697754 118.2522125244141 20.19485473632812 118.5298538208008 20.19485473632812 L 118.52978515625 17.04930877685547 L 117.8896636962891 20.15377044677734 C 104.2655181884766 18.39491653442383 85.90431213378906 18.10137557983398 71.15081787109375 17.86552047729492 C 64.35541534423828 17.75689697265625 58.48670959472656 17.66306304931641 54.06851959228516 17.44468688964844 C 47.14647674560547 17.10251998901367 44.39143371582031 16.56308364868164 42.72031402587891 14.21464538574219 L 42.71245574951172 14.20358276367188 C 40.64983367919922 11.28826904296875 38.10951995849609 9.003562927246094 35.16204071044922 7.412876129150391 C 32.1953125 5.811813354492188 28.96291351318359 5 25.55462646484375 5 M 25.55462646484375 0 C 34.17794036865234 0 41.80362701416016 4.262104034423828 46.79416656494141 11.31573104858398 C 48.55291748046875 13.78731155395508 92.06549835205078 11.77841567993164 118.5298538208008 15.19491577148438 C 118.5204620361328 15.19235992431641 119.0935440063477 15.27016448974609 119.6570434570312 15.35079193115234 C 129.9487915039062 16.82268905639648 122.9671478271484 33.63808441162109 122.9671478271484 35.30352020263672 C 122.9671478271484 35.94718933105469 114.7434539794922 36.21746063232422 114.7434539794922 36.21746063232422 C 114.7434539794922 36.21746063232422 109.0323333740234 46.17035675048828 106.1630020141602 46.09225082397461 C 102.5546875 45.99431228637695 100.0751876831055 35.8423957824707 95.01416778564453 35.62137603759766 C 90.82147979736328 35.43848037719727 85.61347961425781 35.19152069091797 80.26472473144531 34.95339584350586 C 77.88578796386719 34.84747314453125 74.75762939453125 43.80673599243164 71.84492492675781 43.80673599243164 C 71.82685852050781 43.80673599243164 71.80906677246094 43.806396484375 71.791015625 43.80570983886719 C 68.91470336914062 43.69562530517578 63.08724975585938 34.33604431152344 63.08724975585938 34.33604431152344 C 63.08778381347656 34.33597564697266 49.53179931640625 34.33444976806641 49.15248107910156 35.30352020263672 C 45.68083190917969 44.24858474731445 36.40785217285156 51 25.55462646484375 51 C 11.44118499755859 51 0 39.58327102661133 0 25.5 C 0 11.41672897338867 11.44118499755859 0 25.55462646484375 0 Z" stroke="none" fill="#e2306c"/>
      </g>
    </g>
  </g>
</svg>
