<svg xmlns="http://www.w3.org/2000/svg" xmlns:xlink="http://www.w3.org/1999/xlink" width="414" height="831" viewBox="0 0 414 831">
  <defs>
    <clipPath id="clip-Reset-senha-6_1">
      <rect width="414" height="831"/>
    </clipPath>
  </defs>
  <g id="Reset-senha-6_1" data-name="Reset-senha-6 – 1" clip-path="url(#clip-Reset-senha-6_1)">
    <rect width="414" height="831" fill="#320995"/>
    <text id="_Bangeek.ltda" data-name="® Bangeek.ltda" transform="translate(161 769)" fill="#fff" font-size="12" font-family="Montserrat-Regular, Montserrat"><tspan x="0" y="0">® Bangeek.ltda</tspan></text>
    <g id="Grupo_484" data-name="Grupo 484" transform="translate(-4 5)">
      <g id="Grupo_483" data-name="Grupo 483" transform="translate(414.781 575.5) rotate(180)">
        <path id="Caminho_2382" data-name="Caminho 2382" d="M4435.513-2851.89l9.068,9.068-9.068,9.068" transform="translate(-4067.766 3378.822)" fill="none" stroke="#c8c7c7" stroke-linecap="round" stroke-width="3"/>
      </g>
    </g>
    <text id="Senha_alterada_com_sucesso_" data-name="Senha alterada com sucesso!" transform="translate(207 534)" fill="#fff" font-size="20" font-family="Roboto-Regular, Roboto"><tspan x="-130.752" y="0">Senha alterada com sucesso!</tspan></text>
    <g id="Grupo_20280" data-name="Grupo 20280" transform="translate(2 -73)">
      <path id="Caminho_7516" data-name="Caminho 7516" d="M10,0H318a10,10,0,0,1,10,10V50a10,10,0,0,1-10,10H10A10,10,0,0,1,0,50V10A10,10,0,0,1,10,0Z" transform="translate(41 643)" fill="#e2306c"/>
      <text id="INICIAR_SESSÃO" data-name="INICIAR SESSÃO" transform="translate(154 679)" fill="#fff" font-size="14" font-family="Roboto-Regular, Roboto"><tspan x="0" y="0">INICIAR SESSÃO</tspan></text>
    </g>
    <g id="Grupo_20871" data-name="Grupo 20871" transform="translate(0 -41)">
      <g id="Caminho_7517" data-name="Caminho 7517" transform="translate(126 216)" fill="none">
        <path d="M81.5,0A81.5,81.5,0,1,1,0,81.5,81.5,81.5,0,0,1,81.5,0Z" stroke="none"/>
        <path d="M 81.5 3 C 70.90125274658203 3 60.62111663818359 5.075119018554688 50.94518280029297 9.167678833007812 C 46.29438781738281 11.13481140136719 41.80845642089844 13.56973266601562 37.61199951171875 16.40480041503906 C 33.45463562011719 19.21345520019531 29.545166015625 22.4390869140625 25.99211120605469 25.99211120605469 C 22.4390869140625 29.545166015625 19.21345520019531 33.45463562011719 16.40480041503906 37.61199951171875 C 13.56973266601562 41.80845642089844 11.13481140136719 46.29438781738281 9.167678833007812 50.94518280029297 C 5.075119018554688 60.62111663818359 3 70.90125274658203 3 81.5 C 3 92.09874725341797 5.075119018554688 102.3788909912109 9.167678833007812 112.054817199707 C 11.13481140136719 116.7056121826172 13.56973266601562 121.1915435791016 16.40480041503906 125.3880004882812 C 19.21345520019531 129.5453643798828 22.4390869140625 133.454833984375 25.99211120605469 137.0078887939453 C 29.545166015625 140.5609130859375 33.45463562011719 143.7865447998047 37.61199951171875 146.5951995849609 C 41.80845642089844 149.4302673339844 46.29438781738281 151.8651885986328 50.94518280029297 153.8323211669922 C 60.62111663818359 157.9248809814453 70.90125274658203 160 81.5 160 C 92.09874725341797 160 102.3788909912109 157.9248809814453 112.054817199707 153.8323211669922 C 116.7056121826172 151.8651885986328 121.1915435791016 149.4302673339844 125.3880004882812 146.5951995849609 C 129.5453643798828 143.7865447998047 133.454833984375 140.5609130859375 137.0078887939453 137.0078887939453 C 140.5609130859375 133.454833984375 143.7865447998047 129.5453643798828 146.5951995849609 125.3880004882812 C 149.4302673339844 121.1915435791016 151.8651885986328 116.7056121826172 153.8323211669922 112.054817199707 C 157.9248809814453 102.3788909912109 160 92.09874725341797 160 81.5 C 160 70.90125274658203 157.9248809814453 60.62111663818359 153.8323211669922 50.94518280029297 C 151.8651885986328 46.29438781738281 149.4302673339844 41.80845642089844 146.5951995849609 37.61199951171875 C 143.7865447998047 33.45463562011719 140.5609130859375 29.545166015625 137.0078887939453 25.99211120605469 C 133.454833984375 22.4390869140625 129.5453643798828 19.21345520019531 125.3880004882812 16.40480041503906 C 121.1915435791016 13.56973266601562 116.7056121826172 11.13481140136719 112.054817199707 9.167678833007812 C 102.3788909912109 5.075119018554688 92.09874725341797 3 81.5 3 M 81.5 0 C 126.5111999511719 0 163 36.48879241943359 163 81.5 C 163 126.5111999511719 126.5111999511719 163 81.5 163 C 36.48879241943359 163 0 126.5111999511719 0 81.5 C 0 36.48879241943359 36.48879241943359 0 81.5 0 Z" stroke="none" fill="#e2306c"/>
      </g>
      <path id="Caminho_7518" data-name="Caminho 7518" d="M-3694.671,5691.935c31.3,35.57,32.725,34.858,32.725,34.858l55.845-55.845" transform="translate(3857.386 -5395)" fill="none" stroke="#26e55f" stroke-width="3"/>
    </g>
  </g>
</svg>
