<svg xmlns="http://www.w3.org/2000/svg" xmlns:xlink="http://www.w3.org/1999/xlink" width="414" height="831" viewBox="0 0 414 831">
  <defs>
    <filter id="Caminho_7443" x="127" y="611" width="160" height="160" filterUnits="userSpaceOnUse">
      <feOffset dy="3" input="SourceAlpha"/>
      <feGaussianBlur stdDeviation="10" result="blur"/>
      <feFlood flood-color="#e2306c" flood-opacity="0.69"/>
      <feComposite operator="in" in2="blur"/>
      <feComposite in="SourceGraphic"/>
    </filter>
    <clipPath id="clip-transferencia-nova-conta_1">
      <rect width="414" height="831"/>
    </clipPath>
  </defs>
  <g id="transferencia-nova-conta_1" data-name="transferencia-nova-conta – 1" clip-path="url(#clip-transferencia-nova-conta_1)">
    <rect width="414" height="831" fill="#320995"/>
    <text id="_Bangeek.ltda" data-name="® Bangeek.ltda" transform="translate(161 769)" fill="#fff" font-size="12" font-family="Montserrat-Regular, Montserrat"><tspan x="0" y="0">® Bangeek.ltda</tspan></text>
    <g id="Grupo_484" data-name="Grupo 484" transform="translate(-4 5)">
      <g id="Grupo_483" data-name="Grupo 483" transform="translate(414.781 575.5) rotate(180)">
        <path id="Caminho_2382" data-name="Caminho 2382" d="M4435.513-2851.89l9.068,9.068-9.068,9.068" transform="translate(-4067.766 3378.822)" fill="#fff"/>
      </g>
    </g>
    <g id="Caminho_7443-2" data-name="Caminho 7443" transform="translate(157 638)" fill="#c8c7c7">
      <path d="M 90 99.5 L 10 99.5 C 4.761680126190186 99.5 0.5 95.23831939697266 0.5 90 L 0.5 10 C 0.5 4.761680126190186 4.761680126190186 0.5 10 0.5 L 90 0.5 C 95.23831939697266 0.5 99.5 4.761680126190186 99.5 10 L 99.5 90 C 99.5 95.23831939697266 95.23831939697266 99.5 90 99.5 Z" stroke="none"/>
      <path d="M 10 1 C 5.037384033203125 1 1 5.037384033203125 1 10 L 1 90 C 1 94.96261596679688 5.037384033203125 99 10 99 L 90 99 C 94.96261596679688 99 99 94.96261596679688 99 90 L 99 10 C 99 5.037384033203125 94.96261596679688 1 90 1 L 10 1 M 10 0 L 90 0 C 95.52285003662109 0 100 4.477149963378906 100 10 L 100 90 C 100 95.52285003662109 95.52285003662109 100 90 100 L 10 100 C 4.477149963378906 100 0 95.52285003662109 0 90 L 0 10 C 0 4.477149963378906 4.477149963378906 0 10 0 Z" stroke="none" fill="#aaa"/>
    </g>
    <g id="Grupo_20281" data-name="Grupo 20281" transform="translate(5 -150)">
      <rect id="Retângulo_234" data-name="Retângulo 234" width="328" height="60" rx="10" transform="translate(38 244)" fill="#5b31c1"/>
      <text id="Nome_completo_do_titular" data-name="Nome completo do titular" transform="translate(61 280)" fill="#fff" font-size="14" font-family="Roboto-Regular, Roboto"><tspan x="0" y="0">Nome completo do titular</tspan></text>
    </g>
    <g id="Grupo_20282" data-name="Grupo 20282" transform="translate(5 -158)">
      <rect id="Retângulo_235" data-name="Retângulo 235" width="328" height="60" rx="10" transform="translate(38 325)" fill="#5b31c1"/>
      <text id="CPF" transform="translate(61 361)" fill="#f7f3ff" font-size="14" font-family="Roboto-Regular, Roboto"><tspan x="0" y="0">CPF</tspan></text>
    </g>
    <text id="Adicionar_uma_conta" data-name="Adicionar uma conta" transform="translate(134 50)" fill="#fff" font-size="14" font-family="Montserrat-Regular, Montserrat"><tspan x="0" y="0">Adicionar uma conta</tspan></text>
    <g id="Grupo_20324" data-name="Grupo 20324" transform="translate(5 -16)">
      <g id="Grupo_20285" data-name="Grupo 20285" transform="translate(0 -69)">
        <rect id="Retângulo_235-2" data-name="Retângulo 235" width="328" height="60" rx="10" transform="translate(38 325)" fill="#5b31c1"/>
        <text id="Banco_ou_instituição" data-name="Banco ou instituição" transform="translate(61 361)" fill="#fff" font-size="14" font-family="Roboto-Regular, Roboto"><tspan x="0" y="0">Banco ou instituição</tspan></text>
      </g>
      <line id="Linha_117" data-name="Linha 117" x2="11" y2="11" transform="translate(312.5 284.5)" fill="none" stroke="#26e55f" stroke-width="3"/>
      <path id="Caminho_7558" data-name="Caminho 7558" d="M23,0" transform="translate(317.5 281.5)" fill="none" stroke="#26e55f" stroke-width="3" opacity="0.3"/>
      <line id="Linha_118" data-name="Linha 118" y1="21" x2="21" transform="translate(322.5 273.5)" fill="none" stroke="#26e55f" stroke-width="3"/>
    </g>
    <g id="Grupo_20325" data-name="Grupo 20325" transform="translate(5 -12)">
      <rect id="Retângulo_235-3" data-name="Retângulo 235" width="328" height="60" rx="10" transform="translate(38 325)" fill="#5b31c1"/>
      <text id="Agência" transform="translate(61 361)" fill="#fff" font-size="14" font-family="Roboto-Regular, Roboto"><tspan x="0" y="0">Agência</tspan></text>
    </g>
    <g id="Grupo_20326" data-name="Grupo 20326" transform="translate(5 61)">
      <path id="Caminho_7559" data-name="Caminho 7559" d="M10,0H318a10,10,0,0,1,10,10V50a10,10,0,0,1-10,10H10A10,10,0,0,1,0,50V10A10,10,0,0,1,10,0Z" transform="translate(38 325)" fill="#5b31c1"/>
      <text id="Número_da_conta_com_o_dígito" data-name="Número da conta com o dígito" transform="translate(61 361)" fill="#fff" font-size="14" font-family="Roboto-Regular, Roboto"><tspan x="0" y="0">Número da conta com o dígito</tspan></text>
    </g>
    <g id="right-button" transform="translate(157 638)">
      <g transform="matrix(1, 0, 0, 1, -157, -638)" filter="url(#Caminho_7443)">
        <g id="Caminho_7443-3" data-name="Caminho 7443" transform="translate(157 638)" fill="#e2306c">
          <path d="M 90 99.5 L 10 99.5 C 4.761680126190186 99.5 0.5 95.23831939697266 0.5 90 L 0.5 10 C 0.5 4.761680126190186 4.761680126190186 0.5 10 0.5 L 90 0.5 C 95.23831939697266 0.5 99.5 4.761680126190186 99.5 10 L 99.5 90 C 99.5 95.23831939697266 95.23831939697266 99.5 90 99.5 Z" stroke="none"/>
          <path d="M 10 1 C 5.037384033203125 1 1 5.037384033203125 1 10 L 1 90 C 1 94.96261596679688 5.037384033203125 99 10 99 L 90 99 C 94.96261596679688 99 99 94.96261596679688 99 90 L 99 10 C 99 5.037384033203125 94.96261596679688 1 90 1 L 10 1 M 10 0 L 90 0 C 95.52285003662109 0 100 4.477149963378906 100 10 L 100 90 C 100 95.52285003662109 95.52285003662109 100 90 100 L 10 100 C 4.477149963378906 100 0 95.52285003662109 0 90 L 0 10 C 0 4.477149963378906 4.477149963378906 0 10 0 Z" stroke="none" fill="#ff4e8a"/>
        </g>
      </g>
      <path id="Caminho_7456" data-name="Caminho 7456" d="M-1780-22541.865l19.021,19.021-19.021,19.021" transform="translate(1820.489 22572.844)" fill="none" stroke="#fff" stroke-linecap="round" stroke-width="3"/>
    </g>
    <rect id="Retângulo_332" data-name="Retângulo 332" width="28" height="28" rx="8" transform="translate(43 469)" fill="#5b31c1"/>
    <text id="Adicionar_aos_favoritos" data-name="Adicionar aos favoritos" transform="translate(79 489)" fill="#fff" font-size="14" font-family="Roboto-Regular, Roboto"><tspan x="0" y="0">Adicionar aos favoritos</tspan></text>
  </g>
</svg>
