<svg xmlns="http://www.w3.org/2000/svg" xmlns:xlink="http://www.w3.org/1999/xlink" width="414" height="831" viewBox="0 0 414 831">
  <defs>
    <filter id="Caminho_7443" x="127" y="573" width="160" height="160" filterUnits="userSpaceOnUse">
      <feOffset dy="3" input="SourceAlpha"/>
      <feGaussianBlur stdDeviation="10" result="blur"/>
      <feFlood flood-color="#e2306c" flood-opacity="0.69"/>
      <feComposite operator="in" in2="blur"/>
      <feComposite in="SourceGraphic"/>
    </filter>
    <clipPath id="clip-cadastro-1_1">
      <rect width="414" height="831"/>
    </clipPath>
  </defs>
  <g id="cadastro-1_1" data-name="cadastro-1 – 1" clip-path="url(#clip-cadastro-1_1)">
    <rect width="414" height="831" fill="#320995"/>
    <text id="_Bangeek.ltda" data-name="® Bangeek.ltda" transform="translate(161 769)" fill="#fff" font-size="12" font-family="Montserrat-Regular, Montserrat"><tspan x="0" y="0">® Bangeek.ltda</tspan></text>
    <g id="Grupo_484" data-name="Grupo 484" transform="translate(-4 5)">
      <g id="Grupo_483" data-name="Grupo 483" transform="translate(414.781 575.5) rotate(180)">
        <path id="Caminho_2382" data-name="Caminho 2382" d="M4435.513-2851.89l9.068,9.068-9.068,9.068" transform="translate(-4067.766 3378.822)" fill="none" stroke="#c8c7c7" stroke-linecap="round" stroke-width="3"/>
      </g>
    </g>
    <text id="Olá_Geek_vamos_começar_" data-name="Olá Geek, vamos começar!" transform="translate(89 201)" fill="#fff" font-size="20" font-family="Roboto-Regular, Roboto"><tspan x="0" y="0">Olá Geek, vamos começar!</tspan></text>
    <g id="Grupo_20281" data-name="Grupo 20281" transform="translate(5 26)">
      <rect id="Retângulo_234" data-name="Retângulo 234" width="328" height="60" rx="10" transform="translate(38 244)" fill="#5b31c1"/>
      <text id="CPF" transform="translate(61 280)" fill="#fff" font-size="14" font-family="Roboto-Regular, Roboto"><tspan x="0" y="0">CPF</tspan></text>
    </g>
    <g id="Grupo_20282" data-name="Grupo 20282" transform="translate(5 25)">
      <rect id="Retângulo_235" data-name="Retângulo 235" width="328" height="60" rx="10" transform="translate(38 325)" fill="#5b31c1"/>
      <text id="NOME_COMPLETO" data-name="NOME COMPLETO" transform="translate(61 361)" fill="#fff" font-size="14" font-family="Roboto-Regular, Roboto"><tspan x="0" y="0">NOME COMPLETO</tspan></text>
    </g>
    <text id="Ao_continuar_você_declara_estar_ciente_da_nossa_Política_de_Privacidade." data-name="Ao continuar você declara estar ciente da
nossa Política de Privacidade." transform="translate(207 521)" fill="#fff" font-size="13" font-family="Roboto-Regular, Roboto"><tspan x="-119.184" y="0">Ao continuar você declara estar ciente da</tspan><tspan x="-86.573" y="18">nossa Política de Privacidade.</tspan></text>
    <g id="Grupo_20285" data-name="Grupo 20285" transform="translate(5 105)">
      <rect id="Retângulo_235-2" data-name="Retângulo 235" width="328" height="60" rx="10" transform="translate(38 325)" fill="#5b31c1"/>
      <text id="CELULAR_COM_DDD" data-name="CELULAR COM DDD" transform="translate(61 361)" fill="#fff" font-size="14" font-family="Roboto-Regular, Roboto"><tspan x="0" y="0">CELULAR COM DDD</tspan></text>
    </g>
    <g id="right-button" transform="translate(157 600)">
      <g transform="matrix(1, 0, 0, 1, -157, -600)" filter="url(#Caminho_7443)">
        <g id="Caminho_7443-2" data-name="Caminho 7443" transform="translate(157 600)" fill="#e2306c">
          <path d="M 90 99.5 L 10 99.5 C 4.761680126190186 99.5 0.5 95.23831939697266 0.5 90 L 0.5 10 C 0.5 4.761680126190186 4.761680126190186 0.5 10 0.5 L 90 0.5 C 95.23831939697266 0.5 99.5 4.761680126190186 99.5 10 L 99.5 90 C 99.5 95.23831939697266 95.23831939697266 99.5 90 99.5 Z" stroke="none"/>
          <path d="M 10 1 C 5.037384033203125 1 1 5.037384033203125 1 10 L 1 90 C 1 94.96261596679688 5.037384033203125 99 10 99 L 90 99 C 94.96261596679688 99 99 94.96261596679688 99 90 L 99 10 C 99 5.037384033203125 94.96261596679688 1 90 1 L 10 1 M 10 0 L 90 0 C 95.52285003662109 0 100 4.477149963378906 100 10 L 100 90 C 100 95.52285003662109 95.52285003662109 100 90 100 L 10 100 C 4.477149963378906 100 0 95.52285003662109 0 90 L 0 10 C 0 4.477149963378906 4.477149963378906 0 10 0 Z" stroke="none" fill="#ff4e8a"/>
        </g>
      </g>
      <path id="Caminho_7456" data-name="Caminho 7456" d="M-1780-22541.865l19.021,19.021-19.021,19.021" transform="translate(1820.489 22572.844)" fill="none" stroke="#fff" stroke-linecap="round" stroke-width="3"/>
    </g>
    <path id="Caminho_7521" data-name="Caminho 7521" d="M-3264.8,1077.787h208.713l-14.584,3.679-2.134,5.231-8.684,39.011-4.714,11.277-12.187,6.717-26.173.248-9.725-4.137-4.9-7.887-9.244-32.183h-18.523l-6.657,31.5-4.519,8.566-8.5,3.979-30.154.263-15.557-7.071L-3238,1121.9l-6.891-35.2C-3247.037,1075.737-3264.8,1077.787-3264.8,1077.787Z" transform="translate(3358.746 -1000.056)" fill="none" stroke="#e2306c" stroke-width="5"/>
    <g id="Grupo_20867" data-name="Grupo 20867" transform="translate(0 2)">
      <rect id="Retângulo_322" data-name="Retângulo 322" width="70" height="9" transform="translate(0 -2)" fill="#e2306c"/>
      <rect id="Retângulo_323" data-name="Retângulo 323" width="344" height="9" transform="translate(70 -2)" fill="#8d8d8d"/>
    </g>
    <text id="_1_7" data-name="1/7" transform="translate(377 49)" fill="#fff" font-size="14" font-family="ArialMT, Arial"><tspan x="0" y="0">1/7</tspan></text>
  </g>
</svg>
