<svg xmlns="http://www.w3.org/2000/svg" xmlns:xlink="http://www.w3.org/1999/xlink" width="414" height="831" viewBox="0 0 414 831">
  <defs>
    <filter id="Caminho_7443" x="127" y="573" width="160" height="160" filterUnits="userSpaceOnUse">
      <feOffset dy="3" input="SourceAlpha"/>
      <feGaussianBlur stdDeviation="10" result="blur"/>
      <feFlood flood-color="#e2306c" flood-opacity="0.69"/>
      <feComposite operator="in" in2="blur"/>
      <feComposite in="SourceGraphic"/>
    </filter>
    <clipPath id="clip-cadastro-4_1">
      <rect width="414" height="831"/>
    </clipPath>
  </defs>
  <g id="cadastro-4_1" data-name="cadastro-4 – 1" clip-path="url(#clip-cadastro-4_1)">
    <rect width="414" height="831" fill="#320995"/>
    <text id="_Bangeek.ltda" data-name="® Bangeek.ltda" transform="translate(161 769)" fill="#fff" font-size="12" font-family="Montserrat-Regular, Montserrat"><tspan x="0" y="0">® Bangeek.ltda</tspan></text>
    <g id="Grupo_484" data-name="Grupo 484" transform="translate(-4 5)">
      <g id="Grupo_483" data-name="Grupo 483" transform="translate(414.781 575.5) rotate(180)">
        <path id="Caminho_2382" data-name="Caminho 2382" d="M4435.513-2851.89l9.068,9.068-9.068,9.068" transform="translate(-4067.766 3378.822)" fill="none" stroke="#c8c7c7" stroke-linecap="round" stroke-width="3"/>
      </g>
    </g>
    <text id="Fotografe_seus_documentos" data-name="Fotografe seus documentos" transform="translate(82 201)" fill="#fff" font-size="20" font-family="Roboto-Regular, Roboto"><tspan x="0" y="0">Fotografe seus documentos</tspan></text>
    <text id="Fotografe_seus_documentos_e_faça_o_reconhecimento_facial" data-name="Fotografe seus documentos e faça o
reconhecimento facial" transform="translate(207 234)" fill="#fff" font-size="13" font-family="Roboto-Regular, Roboto"><tspan x="-105.815" y="0">Fotografe seus documentos e faça o</tspan><tspan x="-64.33" y="18">reconhecimento facial</tspan></text>
    <text id="Essa_validação_é_apenas_uma_etapa_de_segurança." data-name="Essa validação é apenas uma etapa
de segurança." transform="translate(207 524)" fill="#fff" font-size="13" font-family="Roboto-Regular, Roboto"><tspan x="-103.26" y="0">Essa validação é apenas uma etapa</tspan><tspan x="-40.587" y="18">de segurança.</tspan></text>
    <text id="CNH" transform="translate(193 425)" fill="#fff" font-size="14" font-family="Roboto-Regular, Roboto"><tspan x="0" y="0">CNH</tspan></text>
    <g id="Grupo_20867" data-name="Grupo 20867" transform="translate(0 2)">
      <rect id="Retângulo_322" data-name="Retângulo 322" width="243" height="9" transform="translate(0 -2)" fill="#e2306c"/>
      <rect id="Retângulo_323" data-name="Retângulo 323" width="171" height="9" transform="translate(243 -2)" fill="#8d8d8d"/>
    </g>
    <text id="_4_7" data-name="4/7" transform="translate(377 49)" fill="#fff" font-size="14" font-family="ArialMT, Arial"><tspan x="0" y="0">4/7</tspan></text>
    <g id="right-button" transform="translate(157 600)">
      <g transform="matrix(1, 0, 0, 1, -157, -600)" filter="url(#Caminho_7443)">
        <g id="Caminho_7443-2" data-name="Caminho 7443" transform="translate(157 600)" fill="#e2306c">
          <path d="M 90 99.5 L 10 99.5 C 4.761680126190186 99.5 0.5 95.23831939697266 0.5 90 L 0.5 10 C 0.5 4.761680126190186 4.761680126190186 0.5 10 0.5 L 90 0.5 C 95.23831939697266 0.5 99.5 4.761680126190186 99.5 10 L 99.5 90 C 99.5 95.23831939697266 95.23831939697266 99.5 90 99.5 Z" stroke="none"/>
          <path d="M 10 1 C 5.037384033203125 1 1 5.037384033203125 1 10 L 1 90 C 1 94.96261596679688 5.037384033203125 99 10 99 L 90 99 C 94.96261596679688 99 99 94.96261596679688 99 90 L 99 10 C 99 5.037384033203125 94.96261596679688 1 90 1 L 10 1 M 10 0 L 90 0 C 95.52285003662109 0 100 4.477149963378906 100 10 L 100 90 C 100 95.52285003662109 95.52285003662109 100 90 100 L 10 100 C 4.477149963378906 100 0 95.52285003662109 0 90 L 0 10 C 0 4.477149963378906 4.477149963378906 0 10 0 Z" stroke="none" fill="#ff4e8a"/>
        </g>
      </g>
      <path id="Caminho_7456" data-name="Caminho 7456" d="M-1780-22541.865l19.021,19.021-19.021,19.021" transform="translate(1820.489 22572.844)" fill="none" stroke="#fff" stroke-linecap="round" stroke-width="3"/>
    </g>
    <g id="cnh-2" data-name="cnh" transform="translate(2 9.988)">
      <g id="Grupo_1039" data-name="Grupo 1039" transform="translate(61 286.012)">
        <rect id="Retângulo_157" data-name="Retângulo 157" width="289" height="180" rx="12" transform="translate(0 0)" fill="#fff"/>
        <rect id="Retângulo_158" data-name="Retângulo 158" width="32" height="100" transform="translate(11 71)" fill="#5b31c1"/>
        <rect id="Retângulo_159" data-name="Retângulo 159" width="32" height="58" transform="translate(11 8)" fill="#5b31c1"/>
        <rect id="Retângulo_160" data-name="Retângulo 160" width="258" height="29" transform="translate(11 8)" fill="#5b31c1"/>
        <g id="Retângulo_161" data-name="Retângulo 161" transform="translate(50 41)" fill="#c5acff" stroke="#707070" stroke-width="1" opacity="0.23">
          <rect width="215" height="25" rx="6" stroke="none"/>
          <rect x="0.5" y="0.5" width="214" height="24" rx="5.5" fill="none"/>
        </g>
        <rect id="Retângulo_162" data-name="Retângulo 162" width="63" height="79" transform="translate(50 71)" fill="#5b31c1"/>
        <g id="Retângulo_163" data-name="Retângulo 163" transform="translate(50 156)" fill="#e9e1ff" stroke="#707070" stroke-width="1" opacity="0.23">
          <rect width="66" height="15" rx="3" stroke="none"/>
          <rect x="0.5" y="0.5" width="65" height="14" rx="2.5" fill="none"/>
        </g>
        <g id="Retângulo_164" data-name="Retângulo 164" transform="translate(122 156)" fill="#e9e1ff" stroke="#707070" stroke-width="1" opacity="0.23">
          <rect width="58" height="15" rx="3" stroke="none"/>
          <rect x="0.5" y="0.5" width="57" height="14" rx="2.5" fill="none"/>
        </g>
        <g id="Retângulo_165" data-name="Retângulo 165" transform="translate(187 156)" fill="#e9e1ff" stroke="#707070" stroke-width="1" opacity="0.23">
          <rect width="78" height="15" rx="3" stroke="none"/>
          <rect x="0.5" y="0.5" width="77" height="14" rx="2.5" fill="none"/>
        </g>
        <g id="Retângulo_166" data-name="Retângulo 166" transform="translate(121 70)" fill="#e9e1ff" stroke="#707070" stroke-width="1" opacity="0.23">
          <rect width="144" height="13" rx="3" stroke="none"/>
          <rect x="0.5" y="0.5" width="143" height="12" rx="2.5" fill="none"/>
        </g>
        <g id="Retângulo_167" data-name="Retângulo 167" transform="translate(121 87)" fill="#e9e1ff" stroke="#707070" stroke-width="1" opacity="0.23">
          <rect width="87" height="13" rx="3" stroke="none"/>
          <rect x="0.5" y="0.5" width="86" height="12" rx="2.5" fill="none"/>
        </g>
        <g id="Retângulo_168" data-name="Retângulo 168" transform="translate(213 87)" fill="#e9e1ff" stroke="#707070" stroke-width="1" opacity="0.23">
          <rect width="52" height="13" rx="3" stroke="none"/>
          <rect x="0.5" y="0.5" width="51" height="12" rx="2.5" fill="none"/>
        </g>
        <g id="Retângulo_169" data-name="Retângulo 169" transform="translate(121 102)" fill="#e9e1ff" stroke="#707070" stroke-width="1" opacity="0.23">
          <rect width="144" height="29" rx="3" stroke="none"/>
          <rect x="0.5" y="0.5" width="143" height="28" rx="2.5" fill="none"/>
        </g>
        <g id="Retângulo_170" data-name="Retângulo 170" transform="translate(121 134)" fill="#e9e1ff" stroke="#707070" stroke-width="1" opacity="0.23">
          <rect width="87" height="16" rx="3" stroke="none"/>
          <rect x="0.5" y="0.5" width="86" height="15" rx="2.5" fill="none"/>
        </g>
        <g id="Retângulo_171" data-name="Retângulo 171" transform="translate(213 134)" fill="#e9e1ff" stroke="#707070" stroke-width="1" opacity="0.23">
          <rect width="23" height="16" rx="3" stroke="none"/>
          <rect x="0.5" y="0.5" width="22" height="15" rx="2.5" fill="none"/>
        </g>
        <g id="Retângulo_172" data-name="Retângulo 172" transform="translate(240 134)" fill="#e9e1ff" stroke="#707070" stroke-width="1" opacity="0.23">
          <rect width="25" height="16" rx="3" stroke="none"/>
          <rect x="0.5" y="0.5" width="24" height="15" rx="2.5" fill="none"/>
        </g>
        <rect id="Retângulo_173" data-name="Retângulo 173" width="12" height="163" transform="translate(269 8)" fill="#5b31c1"/>
      </g>
      <g id="Grupo_1040" data-name="Grupo 1040" transform="translate(126.693 376.668)">
        <g id="Elipse_216" data-name="Elipse 216" transform="translate(6.306 0.343)" fill="none" stroke="#f53562" stroke-width="1">
          <ellipse cx="9.5" cy="9" rx="9.5" ry="9" stroke="none"/>
          <ellipse cx="9.5" cy="9" rx="9" ry="8.5" fill="none"/>
        </g>
        <g id="Subtração_13" data-name="Subtração 13" transform="translate(0.306 23.343)" fill="none">
          <path d="M31.995,17H0c0-.145,0-.284,0-.426A16.769,16.769,0,0,1,4.687,4.854a15.611,15.611,0,0,1,22.627,0A16.77,16.77,0,0,1,32,16.574c0,.136,0,.275-.005.425Z" stroke="none"/>
          <path d="M 30.99006462097168 16 C 30.85308265686035 12.04884624481201 29.30432891845703 8.35631275177002 26.59396934509277 5.54872989654541 C 23.76269912719727 2.615439891815186 20.00053024291992 1 16.00049018859863 1 C 12.00028038024902 1 8.237739562988281 2.61545991897583 5.405940055847168 5.548820018768311 C 2.695657253265381 8.356087684631348 1.146915912628174 12.04862308502197 1.009934902191162 16 L 30.99006462097168 16 M 31.99463081359863 17 L 0.004879999905824661 17 C 0.001470000017434359 16.85498046875 0 16.7158203125 0 16.57422065734863 C 0 12.14696979522705 1.664059996604919 7.984859943389893 4.686520099639893 4.854249954223633 C 7.708499908447266 1.723880052566528 11.72655963897705 0 16.00049018859863 0 C 20.27441024780273 0 24.29199028015137 1.723880052566528 27.31348037719727 4.854249954223633 C 30.33544921875 7.984620094299316 32 12.14696979522705 32 16.57422065734863 C 32 16.7099609375 31.9985408782959 16.84911918640137 31.99463081359863 16.99901962280273 L 31.99463081359863 17 Z" stroke="none" fill="#f53562"/>
        </g>
      </g>
    </g>
    <path id="Caminho_7523" data-name="Caminho 7523" d="M-3208,3795.035h-64.639v-61.317h27.653l11.158-11.158h34.53l11.158,11.158h17.1V3722.56h6.613v11.158h6.613v61.317Z" transform="translate(3422.139 -3645.035)" fill="none" stroke="#e2306c" stroke-width="5"/>
    <g id="Elipse_322" data-name="Elipse 322" transform="translate(190 105)" fill="none" stroke="#e2306c" stroke-width="5">
      <circle cx="17" cy="17" r="17" stroke="none"/>
      <circle cx="17" cy="17" r="14.5" fill="none"/>
    </g>
  </g>
</svg>
