<svg xmlns="http://www.w3.org/2000/svg" xmlns:xlink="http://www.w3.org/1999/xlink" width="414" height="831" viewBox="0 0 414 831">
  <defs>
    <filter id="Caminho_7443" x="127" y="573" width="160" height="160" filterUnits="userSpaceOnUse">
      <feOffset dy="3" input="SourceAlpha"/>
      <feGaussianBlur stdDeviation="10" result="blur"/>
      <feFlood flood-color="#e2306c" flood-opacity="0.69"/>
      <feComposite operator="in" in2="blur"/>
      <feComposite in="SourceGraphic"/>
    </filter>
    <clipPath id="clip-cadastro-2_1">
      <rect width="414" height="831"/>
    </clipPath>
  </defs>
  <g id="cadastro-2_1" data-name="cadastro-2 – 1" clip-path="url(#clip-cadastro-2_1)">
    <rect width="414" height="831" fill="#320995"/>
    <text id="_Bangeek.ltda" data-name="® Bangeek.ltda" transform="translate(161 769)" fill="#fff" font-size="12" font-family="Montserrat-Regular, Montserrat"><tspan x="0" y="0">® Bangeek.ltda</tspan></text>
    <g id="Grupo_484" data-name="Grupo 484" transform="translate(-4 5)">
      <g id="Grupo_483" data-name="Grupo 483" transform="translate(414.781 575.5) rotate(180)">
        <path id="Caminho_2382" data-name="Caminho 2382" d="M4435.513-2851.89l9.068,9.068-9.068,9.068" transform="translate(-4067.766 3378.822)" fill="none" stroke="#c8c7c7" stroke-linecap="round" stroke-width="3"/>
      </g>
    </g>
    <text id="Valide_seu_celular" data-name="Valide seu celular" transform="translate(129 201)" fill="#fff" font-size="20" font-family="Roboto-Regular, Roboto"><tspan x="0" y="0">Valide seu celular</tspan></text>
    <g id="Grupo_20281" data-name="Grupo 20281" transform="translate(5 26)">
      <rect id="Retângulo_234" data-name="Retângulo 234" width="328" height="60" rx="10" transform="translate(38 244)" fill="#5b31c1"/>
      <text id="_0000" data-name="0000" transform="translate(61 280)" fill="#fff" stroke="#fff" stroke-width="1" font-size="14" font-family="Roboto-Regular, Roboto"><tspan x="0" y="0">0000</tspan></text>
    </g>
    <text id="Insira_o_código_que_enviamos_por_SMS." data-name="Insira o código que enviamos por SMS." transform="translate(207 234)" fill="#fff" font-size="13" font-family="Roboto-Regular, Roboto"><tspan x="-112.379" y="0">Insira o código que enviamos por SMS.</tspan></text>
    <g id="right-button" transform="translate(157 600)">
      <g transform="matrix(1, 0, 0, 1, -157, -600)" filter="url(#Caminho_7443)">
        <g id="Caminho_7443-2" data-name="Caminho 7443" transform="translate(157 600)" fill="#e2306c">
          <path d="M 90 99.5 L 10 99.5 C 4.761680126190186 99.5 0.5 95.23831939697266 0.5 90 L 0.5 10 C 0.5 4.761680126190186 4.761680126190186 0.5 10 0.5 L 90 0.5 C 95.23831939697266 0.5 99.5 4.761680126190186 99.5 10 L 99.5 90 C 99.5 95.23831939697266 95.23831939697266 99.5 90 99.5 Z" stroke="none"/>
          <path d="M 10 1 C 5.037384033203125 1 1 5.037384033203125 1 10 L 1 90 C 1 94.96261596679688 5.037384033203125 99 10 99 L 90 99 C 94.96261596679688 99 99 94.96261596679688 99 90 L 99 10 C 99 5.037384033203125 94.96261596679688 1 90 1 L 10 1 M 10 0 L 90 0 C 95.52285003662109 0 100 4.477149963378906 100 10 L 100 90 C 100 95.52285003662109 95.52285003662109 100 90 100 L 10 100 C 4.477149963378906 100 0 95.52285003662109 0 90 L 0 10 C 0 4.477149963378906 4.477149963378906 0 10 0 Z" stroke="none" fill="#ff4e8a"/>
        </g>
      </g>
      <path id="Caminho_7456" data-name="Caminho 7456" d="M-1780-22541.865l19.021,19.021-19.021,19.021" transform="translate(1820.489 22572.844)" fill="none" stroke="#fff" stroke-linecap="round" stroke-width="3"/>
    </g>
    <g id="Grupo_20874" data-name="Grupo 20874" transform="translate(2 -2)">
      <g id="Retângulo_324" data-name="Retângulo 324" transform="translate(173 46)" fill="none" stroke="#e2306c" stroke-width="5">
        <rect width="64" height="121" stroke="none"/>
        <rect x="2.5" y="2.5" width="59" height="116" fill="none"/>
      </g>
    </g>
    <g id="Elipse_321" data-name="Elipse 321" transform="translate(200 144)" fill="none" stroke="#e2306c" stroke-width="1">
      <circle cx="7" cy="7" r="7" stroke="none"/>
      <circle cx="7" cy="7" r="6.5" fill="none"/>
    </g>
    <g id="Grupo_20867" data-name="Grupo 20867" transform="translate(0 2)">
      <rect id="Retângulo_322" data-name="Retângulo 322" width="136" height="9" transform="translate(0 -2)" fill="#e2306c"/>
      <rect id="Retângulo_323" data-name="Retângulo 323" width="282" height="9" transform="translate(132 -2)" fill="#8d8d8d"/>
    </g>
    <text id="_2_7" data-name="2/7" transform="translate(377 49)" fill="#fff" font-size="14" font-family="ArialMT, Arial"><tspan x="0" y="0">2/7</tspan></text>
  </g>
</svg>
