<svg xmlns="http://www.w3.org/2000/svg" xmlns:xlink="http://www.w3.org/1999/xlink" width="414" height="831" viewBox="0 0 414 831">
  <defs>
    <clipPath id="clip-tema-2_3">
      <rect width="414" height="831"/>
    </clipPath>
  </defs>
  <g id="tema-2_3" data-name="tema-2 – 3" clip-path="url(#clip-tema-2_3)">
    <rect width="414" height="831" fill="#e2306c"/>
    <text id="_Bangeek.ltda" data-name="® Bangeek.ltda" transform="translate(161 769)" fill="#fff" font-size="12" font-family="Montserrat-Regular, Montserrat"><tspan x="0" y="0">® Bangeek.ltda</tspan></text>
    <g id="Grupo_20279" data-name="Grupo 20279" transform="translate(5 48)">
      <rect id="Retângulo_232" data-name="Retângulo 232" width="328" height="60" rx="10" transform="translate(38 570)" fill="#320995"/>
      <text id="INICIAR_SESSÃO" data-name="INICIAR SESSÃO" transform="translate(156 606)" fill="#fff" font-size="14" font-family="Roboto-Regular, Roboto"><tspan x="0" y="0">INICIAR SESSÃO</tspan></text>
    </g>
    <g id="Grupo_484" data-name="Grupo 484" transform="translate(-4 5)">
      <g id="Grupo_483" data-name="Grupo 483" transform="translate(414.781 575.5) rotate(180)">
        <path id="Caminho_2382" data-name="Caminho 2382" d="M4435.513-2851.89l9.068,9.068-9.068,9.068" transform="translate(-4067.766 3378.822)" fill="none" stroke="#c8c7c7" stroke-linecap="round" stroke-width="3"/>
      </g>
    </g>
    <text id="Maria_22" transform="translate(148 422)" fill="#fff" font-size="20" font-family="Roboto-Regular, Roboto"><tspan x="0" y="0">Maria_22</tspan></text>
    <text id="Que_a_força_esteja_com_você_" data-name="Que a força esteja com você!" transform="translate(207 450)" fill="#fff" font-size="13" font-family="Roboto-Regular, Roboto"><tspan x="-83.76" y="0">Que a força esteja com você!</tspan></text>
    <text id="Avatar" transform="translate(182 329)" fill="#fff" font-size="14" font-family="Roboto-Regular, Roboto"><tspan x="0" y="0">Avatar</tspan></text>
    <g id="Grupo_1000" data-name="Grupo 1000" transform="translate(64 141.273)">
      <circle id="Elipse_46" data-name="Elipse 46" cx="101.019" cy="101.019" r="101.019" transform="translate(0 142.863) rotate(-45)" fill="#ca9fd3"/>
      <g id="Grupo_668" data-name="Grupo 668" transform="translate(52.432 79.524)">
        <path id="Caminho_2787" data-name="Caminho 2787" d="M469.017,401.209c-11.938-28.439-35.778-40.338-64.3-40.338s-52.358,11.895-64.3,40.338a100.231,100.231,0,0,0-7.712,35.5c1.176,36.218,28.463,56.173,72.011,56.173s70.824-19.955,72.012-56.173a100.22,100.22,0,0,0-7.72-35.5Z" transform="translate(-314.078 -360.871)" fill="#ffbd5c"/>
        <g id="Grupo_659" data-name="Grupo 659" transform="translate(46.129 64.037)">
          <g id="Grupo_657" data-name="Grupo 657">
            <circle id="Elipse_47" data-name="Elipse 47" cx="8.539" cy="8.539" r="8.539" fill="#35190e"/>
            <path id="Caminho_2788" data-name="Caminho 2788" d="M361.863,429.216a5.391,5.391,0,0,1,5.395-5.391" transform="translate(-358.268 -420.665)" fill="none" stroke="#fff" stroke-miterlimit="10" stroke-width="2"/>
          </g>
          <g id="Grupo_658" data-name="Grupo 658" transform="translate(71.941)">
            <circle id="Elipse_48" data-name="Elipse 48" cx="8.539" cy="8.539" r="8.539" fill="#35190e"/>
            <path id="Caminho_2789" data-name="Caminho 2789" d="M429.272,429.216a5.39,5.39,0,0,1,5.395-5.391" transform="translate(-425.677 -420.665)" fill="none" stroke="#fff" stroke-miterlimit="10" stroke-width="2"/>
          </g>
        </g>
        <g id="Grupo_664" data-name="Grupo 664" transform="translate(0 4.611)">
          <g id="Grupo_661" data-name="Grupo 661">
            <g id="Grupo_660" data-name="Grupo 660">
              <path id="Caminho_2790" data-name="Caminho 2790" d="M332.6,383.641a38.89,38.89,0,0,0-17.289-6.876,30.941,30.941,0,0,0,14,24.233,26.385,26.385,0,0,0,17.536,2.478A39.126,39.126,0,0,0,332.6,383.642Z" transform="translate(-315.27 -364.412)" fill="#ffc5ae"/>
              <path id="Caminho_2791" data-name="Caminho 2791" d="M355.845,391.583c.373-28.439-33.43-27.051-36.527-25.918a7.229,7.229,0,0,0-3.752,6.163,28.355,28.355,0,0,0-.247,5.72,38.322,38.322,0,0,1,31.536,26.71C352.944,402.965,355.763,399.322,355.845,391.583Z" transform="translate(-315.272 -365.195)" fill="#dd6e00"/>
            </g>
          </g>
          <g id="Grupo_663" data-name="Grupo 663" transform="translate(140.68)">
            <g id="Grupo_662" data-name="Grupo 662">
              <path id="Caminho_2792" data-name="Caminho 2792" d="M469.781,383.641a38.9,38.9,0,0,1,17.289-6.876,30.94,30.94,0,0,1-14,24.233,26.389,26.389,0,0,1-17.536,2.478,39.127,39.127,0,0,1,14.247-19.834Z" transform="translate(-446.518 -364.412)" fill="#ffc5ae"/>
              <path id="Caminho_2793" data-name="Caminho 2793" d="M447.1,391.583c-.372-28.439,33.43-27.051,36.527-25.918a7.229,7.229,0,0,1,3.752,6.163,28.293,28.293,0,0,1,.247,5.72,38.322,38.322,0,0,0-31.537,26.71C450.023,402.965,447.224,399.322,447.1,391.583Z" transform="translate(-447.099 -365.195)" fill="#dd6e00"/>
            </g>
          </g>
        </g>
        <g id="Grupo_665" data-name="Grupo 665" transform="translate(18.635)">
          <path id="Caminho_2794" data-name="Caminho 2794" d="M469.017,401.209c-11.938-28.439-35.778-40.338-64.3-40.338s-52.358,11.895-64.3,40.338a100.231,100.231,0,0,0-7.712,35.5c.027.847.086,1.678.141,2.509,3.019-18.509,15-32.281,31.666-40.981,7.269-3.795,16.627-5.908,23.335-1.176,5.516,3.877,7.425,11.071,8.574,17.717a155.142,155.142,0,0,1,2.353,37.946c-.1,1.815-.518,1.035-.506,2.854a10.515,10.515,0,0,1,12.867,0c0-1.819-.392-1.039-.506-2.854a155.152,155.152,0,0,1,2.352-37.946c1.149-6.645,3.058-13.839,8.574-17.717,6.708-4.7,16.074-2.607,23.335,1.176,16.662,8.7,28.643,22.468,31.666,40.981.055-.831.114-1.658.141-2.509a100.22,100.22,0,0,0-7.688-35.5Z" transform="translate(-332.713 -360.871)" fill="#dd6e00" stroke="#dd6e00" stroke-miterlimit="10" stroke-width="4"/>
        </g>
        <path id="Caminho_2795" data-name="Caminho 2795" d="M470.269,429.31a19.877,19.877,0,0,0-19.132,5.528c-4.246,4.077-32.771,37.429-46.164,37.429s-41.82-33.453-46.164-37.429a21.084,21.084,0,0,0-19.132-4.462A14.451,14.451,0,0,0,329.2,443.6c0,32.113,54.55,48.971,77.7,48.869,21.872-.094,73.846-16.266,73.846-49.939A14.451,14.451,0,0,0,470.269,429.31Z" transform="translate(-314.335 -356.26)" fill="#fffaf0"/>
        <ellipse id="Elipse_49" data-name="Elipse 49" cx="20.163" cy="15.749" rx="20.163" ry="15.749" transform="translate(70.475 86.259)" fill="#fffaf0"/>
        <g id="Grupo_667" data-name="Grupo 667" transform="translate(76.936 85.212)">
          <g id="Grupo_666" data-name="Grupo 666" transform="translate(0 9.248)">
            <path id="Caminho_2796" data-name="Caminho 2796" d="M400.3,449.378a12.148,12.148,0,0,1,0,4.167,9.684,9.684,0,0,1-12.938,4.242" transform="translate(-387.364 -449.378)" fill="none" stroke="#998271" stroke-linecap="round" stroke-linejoin="round" stroke-width="3"/>
            <path id="Caminho_2797" data-name="Caminho 2797" d="M400.91,449.378a12.188,12.188,0,0,0,0,4.167,9.687,9.687,0,0,0,12.938,4.242" transform="translate(-386.439 -449.378)" fill="none" stroke="#998271" stroke-linecap="round" stroke-linejoin="round" stroke-width="3"/>
          </g>
          <path id="Caminho_2798" data-name="Caminho 2798" d="M406.8,440.7h-12.31c-1.69,0-2.744,1.517-1.854,2.705,2.094,2.842,5.524,6.9,8.006,6.9s5.912-4.062,8.01-6.9C409.533,442.2,408.49,440.7,406.8,440.7Z" transform="translate(-387.03 -440.7)" fill="#8c6042"/>
        </g>
      </g>
    </g>
    <g id="Grupo_20894" data-name="Grupo 20894" transform="translate(193 15)">
      <g id="Elipse_254" data-name="Elipse 254" transform="translate(51 329)" fill="#f7f3ff" stroke="#707070" stroke-width="1">
        <circle cx="20.5" cy="20.5" r="20.5" stroke="none"/>
        <circle cx="20.5" cy="20.5" r="20" fill="none"/>
      </g>
      <path id="Subtração_27" data-name="Subtração 27" d="M2981.563-980.275a20.468,20.468,0,0,1-13.645-5.2c12.012-13.18,21.56-23.122,28.38-29.553a20.4,20.4,0,0,1,5.765,14.253,20.366,20.366,0,0,1-6,14.5A20.366,20.366,0,0,1,2981.563-980.275Z" transform="translate(-2910.063 1350.275)" fill="#e2306c" stroke="#707070" stroke-width="1"/>
      <g id="Elipse_325" data-name="Elipse 325" transform="translate(74 357)" fill="#f7f3ff" stroke="#f7f3ff" stroke-width="1">
        <circle cx="2.5" cy="2.5" r="2.5" stroke="none"/>
        <circle cx="2.5" cy="2.5" r="2" fill="none"/>
      </g>
    </g>
  </g>
</svg>
