<svg xmlns="http://www.w3.org/2000/svg" xmlns:xlink="http://www.w3.org/1999/xlink" width="414" height="831" viewBox="0 0 414 831">
  <defs>
    <clipPath id="clip-path">
      <circle id="Elipse_199" data-name="Elipse 199" cx="99.692" cy="99.692" r="99.692" transform="translate(0 140.987) rotate(-45)" fill="none"/>
    </clipPath>
    <clipPath id="clip-path-2">
      <path id="Caminho_3347" data-name="Caminho 3347" d="M115.789,45.743a70.663,70.663,0,0,0-8.36,1.322c-15.174,3.356-31.569,12.775-40.211,26.5a60.959,60.959,0,0,0-7.97,18.31,204.562,204.562,0,0,0-4.577,22.967A406.134,406.134,0,0,0,51.553,180.4a60.6,60.6,0,0,0,2.93,21.146c4.44,11.236,14.3,13.237,24.567,15.709,15.347,3.7,31.648,2.446,47.267,2.341,14.99-.1,30.807,1.239,45.233-3.573,10.925-3.645,13.581-17.941,15.047-28.512a201.746,201.746,0,0,0-.488-44.853,419.96,419.96,0,0,0-6.557-46.53c-2.431-12.229-5.665-24.871-13.675-34.163a45.923,45.923,0,0,0-21.243-13.4,73.543,73.543,0,0,0-28.845-2.825Z" transform="translate(-51.326 -45.371)" fill="none"/>
    </clipPath>
    <clipPath id="clip-tema-2_1">
      <rect width="414" height="831"/>
    </clipPath>
  </defs>
  <g id="tema-2_1" data-name="tema-2 – 1" clip-path="url(#clip-tema-2_1)">
    <rect width="414" height="831" fill="#320995"/>
    <text id="_Bangeek.ltda" data-name="® Bangeek.ltda" transform="translate(161 769)" fill="#fff" font-size="12" font-family="Montserrat-Regular, Montserrat"><tspan x="0" y="0">® Bangeek.ltda</tspan></text>
    <g id="Grupo_20279" data-name="Grupo 20279" transform="translate(5 48)">
      <rect id="Retângulo_232" data-name="Retângulo 232" width="328" height="60" rx="10" transform="translate(38 570)" fill="#e2306c"/>
      <text id="INICIAR_SESSÃO" data-name="INICIAR SESSÃO" transform="translate(156 606)" fill="#fff" font-size="14" font-family="Roboto-Regular, Roboto"><tspan x="0" y="0">INICIAR SESSÃO</tspan></text>
    </g>
    <g id="Grupo_484" data-name="Grupo 484" transform="translate(-4 5)">
      <g id="Grupo_483" data-name="Grupo 483" transform="translate(414.781 575.5) rotate(180)">
        <path id="Caminho_2382" data-name="Caminho 2382" d="M4435.513-2851.89l9.068,9.068-9.068,9.068" transform="translate(-4067.766 3378.822)" fill="none" stroke="#c8c7c7" stroke-linecap="round" stroke-width="3"/>
      </g>
    </g>
    <text id="Gustavo_H22" transform="translate(148 422)" fill="#fff" font-size="20" font-family="Roboto-Regular, Roboto"><tspan x="0" y="0">Gustavo_H22</tspan></text>
    <text id="Que_a_força_esteja_com_você_" data-name="Que a força esteja com você!" transform="translate(207 450)" fill="#fff" font-size="13" font-family="Roboto-Regular, Roboto"><tspan x="-83.76" y="0">Que a força esteja com você!</tspan></text>
    <text id="Avatar" transform="translate(182 329)" fill="#fff" font-size="14" font-family="Roboto-Regular, Roboto"><tspan x="0" y="0">Avatar</tspan></text>
    <g id="Grupo_20859" data-name="Grupo 20859" transform="translate(167.986 365.669)">
      <g id="Grupo_1004" data-name="Grupo 1004" transform="translate(-101.987 -232.142)">
        <g id="Grupo_908" data-name="Grupo 908" transform="translate(0 0)" clip-path="url(#clip-path)">
          <circle id="Elipse_198" data-name="Elipse 198" cx="99.692" cy="99.692" r="99.692" transform="translate(0 140.987) rotate(-45)" fill="#332532"/>
          <g id="Grupo_907" data-name="Grupo 907" transform="translate(52.139 67.53)">
            <g id="Grupo_891" data-name="Grupo 891" transform="translate(20.574 0)">
              <g id="Grupo_890" data-name="Grupo 890" clip-path="url(#clip-path-2)">
                <path id="Caminho_3322" data-name="Caminho 3322" d="M115.789,45.743a70.663,70.663,0,0,0-8.36,1.322c-15.174,3.356-31.569,12.775-40.211,26.5a60.959,60.959,0,0,0-7.97,18.31,204.562,204.562,0,0,0-4.577,22.967A406.134,406.134,0,0,0,51.553,180.4a60.6,60.6,0,0,0,2.93,21.146c4.44,11.236,14.3,13.237,24.567,15.709,15.347,3.7,31.648,2.446,47.267,2.341,14.99-.1,30.807,1.239,45.233-3.573,10.925-3.645,13.581-17.941,15.047-28.512a201.746,201.746,0,0,0-.488-44.853,419.96,419.96,0,0,0-6.557-46.53c-2.431-12.229-5.665-24.871-13.675-34.163a45.923,45.923,0,0,0-21.243-13.4,73.543,73.543,0,0,0-28.845-2.825Z" transform="translate(-51.326 -45.371)" fill="#ffc94e"/>
                <g id="Grupo_889" data-name="Grupo 889" transform="translate(-5.17 -3.035)">
                  <g id="Grupo_887" data-name="Grupo 887" transform="translate(0 2.144)">
                    <path id="Caminho_3323" data-name="Caminho 3323" d="M52.216,116.726a36.6,36.6,0,0,0-2.713,11.2l-.542,4.082a5.7,5.7,0,0,0,.108,2.85,3.819,3.819,0,0,0,1.156,1.481,7.648,7.648,0,0,0,9.032-.145,16.427,16.427,0,0,0,5.517-8.089,35.081,35.081,0,0,0,2.1-11.836c0-3.779-2.041-8.14-6.326-7A14.238,14.238,0,0,0,52.216,116.726Z" transform="translate(-47.336 -13.295)" fill="#efa937"/>
                    <path id="Caminho_3324" data-name="Caminho 3324" d="M58.663,102.894a7.15,7.15,0,0,0,4.7,7.182,6.34,6.34,0,0,0,2.6.509,7.305,7.305,0,0,0,5.911-5.452,7.612,7.612,0,0,0,.361-4.072C70.311,92.648,59.725,95.8,58.663,102.894Z" transform="translate(-42.5 -19.692)" fill="#efa937"/>
                    <path id="Caminho_3325" data-name="Caminho 3325" d="M57.9,86.379a4.939,4.939,0,0,0-2.482,2.775,8.385,8.385,0,0,0,.166,3.313,13.082,13.082,0,0,1-.307,5.166,3.519,3.519,0,0,0-.043,2.822,2.431,2.431,0,0,0,2.207.795A9.458,9.458,0,0,0,65.7,94.833a19.706,19.706,0,0,0,.647-2.89,8.786,8.786,0,0,0-.325-5.809C64.374,83.24,60.129,85.075,57.9,86.379Z" transform="translate(-44.324 -25.284)" fill="#efa937"/>
                    <path id="Caminho_3326" data-name="Caminho 3326" d="M55.153,78.035A10.181,10.181,0,0,0,53.495,82.8a6.684,6.684,0,0,0,4.314,5.925,12.464,12.464,0,0,0,7.479.177,4.921,4.921,0,0,0,1.969-.813,4.426,4.426,0,0,0,1.326-3.721c-.069-1.376-.473-2.713-.593-4.086a10.065,10.065,0,0,1,.567-4.335,18.043,18.043,0,0,0,2.265-6.434,4.675,4.675,0,0,0-2.428-3.924C62.44,62.518,57.4,74.039,55.153,78.035Z" transform="translate(-45.046 -34.837)" fill="#efa937"/>
                    <path id="Caminho_3327" data-name="Caminho 3327" d="M64.7,62.664c1.062,1.481,3.447,1.405,4.4,2.963.907,1.474,0,3.494.535,5.148a4.057,4.057,0,0,0,5.166,2.005,8.534,8.534,0,0,0,5.109-5.192,14.249,14.249,0,0,0,.491-7.569c-.668-3.674-2.861-7.97-6.864-6.062A21.677,21.677,0,0,0,64.7,62.664Z" transform="translate(-39.567 -40.503)" fill="#efa937"/>
                    <path id="Caminho_3328" data-name="Caminho 3328" d="M57.9,133.6a3.284,3.284,0,0,1,2.283-.3c1.12.39,1.586,1.741,1.911,2.923,2.128,7.822,4.234,16.337,1.33,23.881a5.835,5.835,0,0,1-3.06,3.678,4.639,4.639,0,0,1-3.942-.744,17.341,17.341,0,0,1-5.6-8.19c-1.575-3.66-4.032-9.032-2.529-13.147A17.793,17.793,0,0,1,57.9,133.6Z" transform="translate(-47.824 -1.471)" fill="#efa937"/>
                    <path id="Caminho_3329" data-name="Caminho 3329" d="M59.838,138.081a5.549,5.549,0,0,0,4.458-3.342c1.145-2.529.679-10.018-3.544-7.749a5.744,5.744,0,0,0-2.417,4.823C58.3,132.557,59.079,138.135,59.838,138.081Z" transform="translate(-42.682 -4.74)" fill="#efa937"/>
                    <path id="Caminho_3330" data-name="Caminho 3330" d="M68.572,70.473a5.781,5.781,0,0,0-2.294,4.856,1.777,1.777,0,0,0,.361.986,1.879,1.879,0,0,0,1.445.491,10.231,10.231,0,0,0,5.4-1.5c2.016-1.228,4.09-4.335,1.691-6.42C73.308,67.286,70.169,69.168,68.572,70.473Z" transform="translate(-38.785 -33.265)" fill="#efa937"/>
                    <path id="Caminho_3331" data-name="Caminho 3331" d="M83.379,64.515a4.036,4.036,0,0,0,3.374-.853,16.363,16.363,0,0,0,6.312-6.705,9.137,9.137,0,0,0-.556-9.032c-2.966-3.974-12.844-4.736-14.726.907-.809,2.424.885,5.025,1.749,7.153C80.46,58.279,80.724,63.572,83.379,64.515Z" transform="translate(-33.263 -44.771)" fill="#efa937"/>
                    <path id="Caminho_3332" data-name="Caminho 3332" d="M78,64.384a6.142,6.142,0,0,0-.361,1.586l-.34,2.348a4.335,4.335,0,0,0,.058,2.2,2.677,2.677,0,0,0,1.268,1.34,6.38,6.38,0,0,0,6.012-.9,5.78,5.78,0,0,0,2.323-2.088A6.864,6.864,0,0,0,87.47,65.4C87.293,59.767,80.017,59.814,78,64.384Z" transform="translate(-33.449 -36.805)" fill="#efa937"/>
                    <path id="Caminho_3333" data-name="Caminho 3333" d="M64.92,109.01c3.371-2.955,6.286,2.139,3.36,5.824a3.613,3.613,0,0,1-2.688,1.716c-3.566-.119-3.129-4.642-1.445-6.738a6.5,6.5,0,0,1,.773-.8Z" transform="translate(-40.455 -13.766)" fill="#efa937"/>
                  </g>
                  <g id="Grupo_888" data-name="Grupo 888" transform="translate(89.437 2.144)">
                    <path id="Caminho_3334" data-name="Caminho 3334" d="M150.18,116.726a36.646,36.646,0,0,1,2.71,11.2l.542,4.082a5.682,5.682,0,0,1-.108,2.851,3.8,3.8,0,0,1-1.156,1.481,7.648,7.648,0,0,1-9.032-.145,16.439,16.439,0,0,1-5.517-8.089,35.082,35.082,0,0,1-2.1-11.836c0-3.779,2.041-8.14,6.322-7a14.242,14.242,0,0,1,8.335,7.457Z" transform="translate(-94.325 -13.295)" fill="#efa937"/>
                    <path id="Caminho_3335" data-name="Caminho 3335" d="M142.29,102.894a7.15,7.15,0,0,1-4.7,7.182,6.345,6.345,0,0,1-2.6.509,7.305,7.305,0,0,1-5.911-5.452,7.612,7.612,0,0,1-.361-4.072C130.642,92.648,141.228,95.8,142.29,102.894Z" transform="translate(-97.718 -19.692)" fill="#efa937"/>
                    <path id="Caminho_3336" data-name="Caminho 3336" d="M142.431,86.379a4.939,4.939,0,0,1,2.482,2.775,8.411,8.411,0,0,1-.163,3.313,13.082,13.082,0,0,0,.307,5.166,3.519,3.519,0,0,1,.043,2.822,2.431,2.431,0,0,1-2.207.795,9.458,9.458,0,0,1-8.266-6.416,19.9,19.9,0,0,1-.647-2.89,8.786,8.786,0,0,1,.325-5.809C135.956,83.24,140.2,85.075,142.431,86.379Z" transform="translate(-95.272 -25.284)" fill="#efa937"/>
                    <path id="Caminho_3337" data-name="Caminho 3337" d="M147.01,78.035a10.167,10.167,0,0,1,1.658,4.769,6.684,6.684,0,0,1-4.314,5.925,12.468,12.468,0,0,1-7.479.177,4.921,4.921,0,0,1-1.969-.813,4.426,4.426,0,0,1-1.326-3.721c.069-1.376.473-2.713.593-4.086a10.044,10.044,0,0,0-.567-4.335,18.042,18.042,0,0,1-2.265-6.434,4.675,4.675,0,0,1,2.428-3.923C139.723,62.518,144.759,74.039,147.01,78.035Z" transform="translate(-96.379 -34.837)" fill="#efa937"/>
                    <path id="Caminho_3338" data-name="Caminho 3338" d="M137.033,62.664c-1.062,1.481-3.447,1.405-4.4,2.963-.907,1.474,0,3.494-.535,5.148a4.057,4.057,0,0,1-5.166,2.005,8.53,8.53,0,0,1-5.108-5.192,14.234,14.234,0,0,1-.491-7.569c.668-3.674,2.861-7.97,6.864-6.062A21.677,21.677,0,0,1,137.033,62.664Z" transform="translate(-101.439 -40.503)" fill="#efa937"/>
                    <path id="Caminho_3339" data-name="Caminho 3339" d="M144.166,133.6a3.284,3.284,0,0,0-2.283-.3c-1.12.39-1.586,1.741-1.911,2.923-2.128,7.822-4.234,16.337-1.33,23.881a5.835,5.835,0,0,0,3.06,3.678,4.639,4.639,0,0,0,3.942-.744,17.366,17.366,0,0,0,5.6-8.19c1.575-3.66,4.028-9.032,2.529-13.147A17.793,17.793,0,0,0,144.166,133.6Z" transform="translate(-93.506 -1.471)" fill="#efa937"/>
                    <path id="Caminho_3340" data-name="Caminho 3340" d="M138.77,138.081a5.546,5.546,0,0,1-4.458-3.342c-1.149-2.529-.679-10.018,3.544-7.749a5.748,5.748,0,0,1,2.413,4.823C140.306,132.557,139.529,138.135,138.77,138.081Z" transform="translate(-95.192 -4.74)" fill="#efa937"/>
                    <path id="Caminho_3341" data-name="Caminho 3341" d="M131.17,70.473a5.781,5.781,0,0,1,2.294,4.856,1.777,1.777,0,0,1-.361.986,1.875,1.875,0,0,1-1.445.491,10.235,10.235,0,0,1-5.4-1.5c-2.012-1.228-4.09-4.335-1.691-6.42C126.434,67.286,129.573,69.168,131.17,70.473Z" transform="translate(-100.222 -33.265)" fill="#efa937"/>
                    <path id="Caminho_3342" data-name="Caminho 3342" d="M118.5,64.515a4.039,4.039,0,0,1-3.378-.853,16.359,16.359,0,0,1-6.308-6.705,9.133,9.133,0,0,1,.556-9.032c2.966-3.974,12.84-4.736,14.726.907.809,2.424-.885,5.025-1.749,7.153C121.416,58.279,121.149,63.572,118.5,64.515Z" transform="translate(-107.875 -44.771)" fill="#efa937"/>
                    <path id="Caminho_3343" data-name="Caminho 3343" d="M121.884,64.384a6,6,0,0,1,.361,1.586l.34,2.348a4.358,4.358,0,0,1-.061,2.2,2.677,2.677,0,0,1-1.268,1.34,6.38,6.38,0,0,1-6.012-.9,5.781,5.781,0,0,1-2.323-2.088,6.864,6.864,0,0,1-.513-3.468C112.581,59.767,119.861,59.814,121.884,64.384Z" transform="translate(-105.695 -36.805)" fill="#efa937"/>
                    <path id="Caminho_3344" data-name="Caminho 3344" d="M133.721,109.01c-3.371-2.955-6.286,2.139-3.36,5.824a3.613,3.613,0,0,0,2.688,1.716c3.566-.119,3.132-4.642,1.445-6.738a6.5,6.5,0,0,0-.773-.8Z" transform="translate(-97.451 -13.766)" fill="#efa937"/>
                  </g>
                  <path id="Caminho_3345" data-name="Caminho 3345" d="M89.608,50.955c.907,2.388,4.614,2.24,5.781,4.509a21.737,21.737,0,0,1,.723,3.32,4.729,4.729,0,0,0,4.816,2.937,12.089,12.089,0,0,0,5.549-2.189,9.343,9.343,0,0,0,4.007-3.931,8.115,8.115,0,0,0,.513-3.36,10.961,10.961,0,0,0-.7-3.869,8.161,8.161,0,0,0-5.64-4.787,13.75,13.75,0,0,0-15.051,7.37Z" transform="translate(-27.371 -43.31)" fill="#efa937"/>
                  <path id="Caminho_3346" data-name="Caminho 3346" d="M107.759,54.854c2.89.441,4.819,5.04,1.5,6.557a4.274,4.274,0,0,1-3.389-.361,4.549,4.549,0,0,1-2.659-2.193c-1.2-2.991,1.994-4.166,4.292-4.021A1.064,1.064,0,0,1,107.759,54.854Z" transform="translate(-20.843 -37.699)" fill="#efa937"/>
                </g>
              </g>
            </g>
            <g id="Grupo_896" data-name="Grupo 896" transform="translate(0 64.011)">
              <g id="Grupo_893" data-name="Grupo 893" transform="translate(0 0)">
                <g id="Grupo_892" data-name="Grupo 892" transform="translate(1.487)">
                  <path id="Caminho_3348" data-name="Caminho 3348" d="M46.83,88.988a11.5,11.5,0,0,0-6.864,5.358,14.689,14.689,0,0,0-1.405,7.822,12.854,12.854,0,0,0,2.168,6.984,10.961,10.961,0,0,0,5.575,3.674,19.462,19.462,0,0,0,10.7.145,13.645,13.645,0,0,0,5.672-2.771,13.342,13.342,0,0,0,1.586-16.648C60.634,88.688,52.13,87.405,46.83,88.988Z" transform="translate(-38.492 -88.347)" fill="#ffc94e"/>
                  <path id="Caminho_3349" data-name="Caminho 3349" d="M48.227,92.062a7.388,7.388,0,0,0-5.058,3.461,2.771,2.771,0,0,0-.434,2.413,2.475,2.475,0,0,0,2.775,1.12,12.468,12.468,0,0,1,3.154-.527,1.557,1.557,0,0,1,.78.264c.8.6.444,1.94-.2,2.713s-1.539,1.445-1.7,2.453c-.246,1.564,1.445,2.735,2.963,2.89a6.929,6.929,0,0,0,7.078-4.628,8.226,8.226,0,0,0-9.361-10.159Z" transform="translate(-36.432 -86.598)" fill="#ef8e37"/>
                </g>
                <path id="Caminho_3350" data-name="Caminho 3350" d="M53.435,113.644A8.158,8.158,0,0,0,41.8,111.476a8.931,8.931,0,0,0-3.887,5.268A8.515,8.515,0,0,0,51.206,126.1a9.238,9.238,0,0,0,2.114-3.786,10.734,10.734,0,0,0,.116-8.667Zm-3.9,6.752a3.934,3.934,0,0,1-4.372,2.28,3.974,3.974,0,0,1-2.89-4.082c.181-2.211,2.641-4.7,4.816-3.974a4.48,4.48,0,0,1,2.449,5.777Z" transform="translate(-37.509 -77.828)" fill="#f8f298"/>
                <path id="Caminho_3351" data-name="Caminho 3351" d="M41.057,113.024a8.078,8.078,0,0,0,1.369,6.807,4.061,4.061,0,0,0,2.963,1.189,2.168,2.168,0,0,0,1.283-.4,3.147,3.147,0,0,0,.9-1.662,38,38,0,0,0,1.745-11.38c-.043-2.3-1.716-7.562-4.83-5.221C42.055,104.191,41.433,110.184,41.057,113.024Z" transform="translate(-35.897 -81.775)" fill="#fffcdf"/>
              </g>
              <g id="Grupo_895" data-name="Grupo 895" transform="translate(148.236 0)">
                <g id="Grupo_894" data-name="Grupo 894">
                  <path id="Caminho_3352" data-name="Caminho 3352" d="M156.642,88.988a11.5,11.5,0,0,1,6.864,5.358,14.664,14.664,0,0,1,1.405,7.822,12.866,12.866,0,0,1-2.168,6.984,10.964,10.964,0,0,1-5.575,3.674,19.462,19.462,0,0,1-10.7.145,13.631,13.631,0,0,1-5.672-2.771,13.342,13.342,0,0,1-1.586-16.648C142.841,88.688,151.346,87.405,156.642,88.988Z" transform="translate(-137.007 -88.347)" fill="#ffc94e"/>
                  <path id="Caminho_3353" data-name="Caminho 3353" d="M150.973,92.061a7.4,7.4,0,0,1,5.058,3.461,2.775,2.775,0,0,1,.434,2.413,2.475,2.475,0,0,1-2.775,1.12,12.456,12.456,0,0,0-3.154-.527,1.564,1.564,0,0,0-.78.264c-.8.6-.444,1.94.2,2.713s1.539,1.445,1.7,2.453c.246,1.564-1.445,2.735-2.959,2.89a6.929,6.929,0,0,1-7.081-4.628,8.23,8.23,0,0,1,9.357-10.159Z" transform="translate(-134.796 -86.597)" fill="#ef8e37"/>
                </g>
                <path id="Caminho_3354" data-name="Caminho 3354" d="M146.472,122.326a9.219,9.219,0,0,0,2.114,3.786,8.515,8.515,0,0,0,13.306-9.368A8.935,8.935,0,0,0,158,111.477a8.158,8.158,0,0,0-11.633,2.168A10.726,10.726,0,0,0,146.472,122.326Zm6.228-7.713c2.168-.723,4.635,1.767,4.816,3.974a3.974,3.974,0,0,1-2.89,4.082,3.934,3.934,0,0,1-4.372-2.28,4.48,4.48,0,0,1,2.442-5.773Z" transform="translate(-132.834 -77.826)" fill="#f8f298"/>
                <path id="Caminho_3355" data-name="Caminho 3355" d="M156.034,113.024a8.089,8.089,0,0,1-1.369,6.807,4.064,4.064,0,0,1-2.963,1.189,2.167,2.167,0,0,1-1.283-.4,3.158,3.158,0,0,1-.9-1.662,38.09,38.09,0,0,1-1.745-11.38c.043-2.3,1.716-7.562,4.83-5.221C155.037,104.191,155.655,110.184,156.034,113.024Z" transform="translate(-131.731 -81.775)" fill="#fffcdf"/>
              </g>
            </g>
            <g id="Grupo_898" data-name="Grupo 898" transform="translate(42.089 41.019)">
              <path id="Caminho_3356" data-name="Caminho 3356" d="M66.656,84.077a14.126,14.126,0,0,0,11.081,18.855,15.82,15.82,0,0,0,4.877.361A14.578,14.578,0,0,0,94.97,91.874a16.185,16.185,0,0,0-6.214-16.092C79.941,69.525,69.792,74.026,66.656,84.077Z" transform="translate(-65.781 -72.909)" fill="#fff"/>
              <g id="Grupo_897" data-name="Grupo 897" transform="translate(10.724 11.003)">
                <path id="Caminho_3357" data-name="Caminho 3357" d="M76.358,80.784a2.991,2.991,0,0,1,4.585,2.3,4.935,4.935,0,0,1-1.358,4.534,3.974,3.974,0,0,1-4.455.661C71.008,86.113,73.45,82.056,76.358,80.784Z" transform="translate(-72.94 -80.319)"/>
              </g>
            </g>
            <g id="Grupo_900" data-name="Grupo 900" transform="translate(72.877 18.781)">
              <path id="Caminho_3358" data-name="Caminho 3358" d="M87.329,69.151A14.126,14.126,0,0,0,98.406,88.006a15.786,15.786,0,0,0,4.881.361,14.578,14.578,0,0,0,12.352-11.42,16.182,16.182,0,0,0-6.214-16.091C100.62,54.591,90.461,59.089,87.329,69.151Z" transform="translate(-86.452 -57.977)" fill="#fff"/>
              <g id="Grupo_899" data-name="Grupo 899" transform="translate(10.723 11.004)">
                <path id="Caminho_3359" data-name="Caminho 3359" d="M97.028,65.849a2.995,2.995,0,0,1,4.585,2.3,4.935,4.935,0,0,1-1.358,4.534,3.974,3.974,0,0,1-4.455.661C91.681,71.182,94.123,67.139,97.028,65.849Z" transform="translate(-93.611 -65.387)"/>
              </g>
            </g>
            <g id="Grupo_902" data-name="Grupo 902" transform="translate(106.558 41.019)">
              <path id="Caminho_3360" data-name="Caminho 3360" d="M109.932,84.077a14.13,14.13,0,0,0,11.081,18.855,15.832,15.832,0,0,0,4.881.361,14.578,14.578,0,0,0,12.352-11.42,16.182,16.182,0,0,0-6.214-16.091C123.21,69.525,113.05,74.026,109.932,84.077Z" transform="translate(-109.058 -72.909)" fill="#fff"/>
              <g id="Grupo_901" data-name="Grupo 901" transform="translate(10.707 11.006)">
                <path id="Caminho_3361" data-name="Caminho 3361" d="M119.629,80.782a2.995,2.995,0,0,1,4.585,2.3,4.935,4.935,0,0,1-1.358,4.534,3.974,3.974,0,0,1-4.455.661C114.282,86.111,116.724,82.054,119.629,80.782Z" transform="translate(-116.212 -80.32)"/>
              </g>
            </g>
            <g id="Grupo_903" data-name="Grupo 903" transform="translate(67.91 98.368)">
              <path id="Caminho_3362" data-name="Caminho 3362" d="M122.156,120.592c-.1-1.084-.231-2.189-.361-3.277a5.9,5.9,0,0,0-.6-2.168,4.96,4.96,0,0,0-2.89-1.973,33.028,33.028,0,0,0-7.637-1.351,114.487,114.487,0,0,0-13.862-.34c-3.974.145-11.153-.119-12.775,4.758a20.4,20.4,0,0,0-.7,2.8C94.268,126.242,109.4,125,122.156,120.592Z" transform="translate(-82.933 -111.409)" fill="#fff"/>
              <path id="Caminho_3363" data-name="Caminho 3363" d="M122.2,126.046c.025-.166.051-.332.072-.5a33.13,33.13,0,0,0,.036-7.461c-12.76,4.408-27.884,5.651-38.845-1.553a25.2,25.2,0,0,0,.22,9.986A57.545,57.545,0,0,0,122.2,126.046Z" transform="translate(-83.069 -108.908)"/>
              <path id="Caminho_3364" data-name="Caminho 3364" d="M89.247,124.674c-.723,2.07-1.358,4.173-2,6.294a17.943,17.943,0,0,0,2.6,1.572,21.492,21.492,0,0,0,2.529,1.037c.643-2.724,1.427-5.419,2.113-8.172a51.662,51.662,0,0,1-5.239-.73Z" transform="translate(-81.03 -104.92)"/>
              <path id="Caminho_3365" data-name="Caminho 3365" d="M92.788,125.258c-.686,2.742-1.47,5.448-2.113,8.172a34.424,34.424,0,0,0,6.25,1.445,29.1,29.1,0,0,0,9.14.134c.3-.051.607-.119.907-.184-.683-3.277-1.272-6.532-1.64-9.845a58.074,58.074,0,0,1-12.544.278Z" transform="translate(-79.354 -104.775)" fill="#fff"/>
              <path id="Caminho_3366" data-name="Caminho 3366" d="M100.516,125.26c.361,3.313.957,6.565,1.64,9.845A16.043,16.043,0,0,0,106.8,133.3c-.484-2.959-.845-5.936-1.232-8.888Q103.056,124.935,100.516,125.26Z" transform="translate(-74.538 -105.048)"/>
              <path id="Caminho_3367" data-name="Caminho 3367" d="M111.992,122.919a67.737,67.737,0,0,1-8.085,2.222c.383,2.948.744,5.929,1.232,8.888a12.891,12.891,0,0,0,2.626-2.023,16.478,16.478,0,0,0,4.227-9.086Z" transform="translate(-72.878 -105.777)" fill="#fff"/>
              <path id="Caminho_3368" data-name="Caminho 3368" d="M83.477,123.239a15.261,15.261,0,0,0,1.445,3.851,14.368,14.368,0,0,0,4.162,4.581c.643-2.121,1.3-4.227,2-6.294a47.655,47.655,0,0,1-7.609-2.139Z" transform="translate(-82.879 -105.624)" fill="#fff"/>
            </g>
            <path id="Caminho_3369" data-name="Caminho 3369" d="M79.114,111.263a62.841,62.841,0,0,0-13.862,49.911,13.949,13.949,0,0,0,6.167,10.607,10.839,10.839,0,0,0,12.211-3.905c7.916-9.18,6.445-24.275,14.325-33.487a19.982,19.982,0,0,1,19.686-6.239,23.014,23.014,0,0,1,15.5,14.4,72.878,72.878,0,0,1,2.648,12.2,26.55,26.55,0,0,0,4.371,11.532,10.5,10.5,0,0,0,10.568,4.364,10.661,10.661,0,0,0,6.63-6.46,24.44,24.44,0,0,0,1.445-9.606c-.224-17.547-8.208-34.181-18.9-47.747-5.546-7.041-13.469-15.123-22.826-15.438a44.127,44.127,0,0,0-25.871,8.577A60.119,60.119,0,0,0,79.114,111.263Z" transform="translate(-24.176 -22.835)" fill="#ef8e37"/>
            <g id="Grupo_904" data-name="Grupo 904" transform="translate(74.737 54.952)">
              <path id="Caminho_3370" data-name="Caminho 3370" d="M94.391,83.841a11.373,11.373,0,0,0-6.467,7.186A11.839,11.839,0,0,0,92,102.783a16.72,16.72,0,0,0,11.984,3.389,12.869,12.869,0,0,0,5.083-1.3,12,12,0,0,0,4-3.645,12.388,12.388,0,0,0,.647-14.469C109.424,81.464,100.088,81.341,94.391,83.841Z" transform="translate(-87.639 -82.263)" fill="#884637"/>
              <path id="Caminho_3371" data-name="Caminho 3371" d="M92.066,89.721a4.032,4.032,0,0,1,4.082,1.51,5.123,5.123,0,0,1,.455,4.628,3.017,3.017,0,0,1-1.261,1.622,2.767,2.767,0,0,1-2.269,0,5.5,5.5,0,0,1-3.14-5.712,2.775,2.775,0,0,1,2.132-2.048Z" transform="translate(-86.536 -78.659)" fill="#6b2e24"/>
              <path id="Caminho_3372" data-name="Caminho 3372" d="M103.951,89.721a4.028,4.028,0,0,0-4.082,1.51,5.116,5.116,0,0,0-.455,4.628,3.009,3.009,0,0,0,1.261,1.622,2.767,2.767,0,0,0,2.269,0,5.5,5.5,0,0,0,3.125-5.694,2.775,2.775,0,0,0-2.117-2.066Z" transform="translate(-82.08 -78.659)" fill="#6b2e24"/>
            </g>
            <g id="Grupo_905" data-name="Grupo 905" transform="translate(49.06 85.23)">
              <path id="Caminho_3373" data-name="Caminho 3373" d="M82,105.9a3.252,3.252,0,0,0,2.869,3.2,3.208,3.208,0,0,0,3.223-2.807,4.079,4.079,0,0,0-.253-1.839,3.291,3.291,0,0,0-.6-1.059C85.463,101.389,82.013,103.466,82,105.9Z" transform="translate(-64.755 -102.591)" fill="#d36f1c"/>
              <path id="Caminho_3374" data-name="Caminho 3374" d="M77.31,111.075a3.252,3.252,0,0,0,2.865,3.2,3.208,3.208,0,0,0,3.223-2.807,4.079,4.079,0,0,0-.253-1.839,3.287,3.287,0,0,0-.592-1.059C80.775,106.559,77.328,108.629,77.31,111.075Z" transform="translate(-67.046 -100.062)" fill="#d36f1c"/>
              <path id="Caminho_3375" data-name="Caminho 3375" d="M73.175,116.817a3.252,3.252,0,0,0,2.869,3.2,3.208,3.208,0,0,0,3.223-2.807,4.079,4.079,0,0,0-.253-1.839,3.251,3.251,0,0,0-.6-1.059C76.643,112.3,73.193,114.378,73.175,116.817Z" transform="translate(-69.071 -97.249)" fill="#d36f1c"/>
              <path id="Caminho_3376" data-name="Caminho 3376" d="M70.419,124.278a3.252,3.252,0,0,0,2.869,3.2,3.212,3.212,0,0,0,3.2-2.789,4.079,4.079,0,0,0-.253-1.839,3.292,3.292,0,0,0-.6-1.059C73.887,119.762,70.437,121.839,70.419,124.278Z" transform="translate(-70.419 -93.59)" fill="#d36f1c"/>
              <path id="Caminho_3377" data-name="Caminho 3377" d="M76.207,127.436a3.252,3.252,0,0,0,2.869,3.2A3.212,3.212,0,0,0,82.3,127.83a4.079,4.079,0,0,0-.253-1.839,3.291,3.291,0,0,0-.6-1.059C79.675,122.938,76.225,125,76.207,127.436Z" transform="translate(-67.587 -92.044)" fill="#d36f1c"/>
              <path id="Caminho_3378" data-name="Caminho 3378" d="M79.79,119.689a3.252,3.252,0,0,0,2.869,3.2,3.208,3.208,0,0,0,3.223-2.807,4.082,4.082,0,0,0-.253-1.839,3.25,3.25,0,0,0-.6-1.055C83.258,115.17,79.808,117.247,79.79,119.689Z" transform="translate(-65.834 -95.844)" fill="#d36f1c"/>
              <path id="Caminho_3379" data-name="Caminho 3379" d="M83.925,114.519a3.252,3.252,0,0,0,2.865,3.2,3.208,3.208,0,0,0,3.223-2.807,4.086,4.086,0,0,0-.253-1.839,3.294,3.294,0,0,0-.6-1.055C87.39,110,83.943,112.077,83.925,114.519Z" transform="translate(-63.809 -98.372)" fill="#d36f1c"/>
              <path id="Caminho_3380" data-name="Caminho 3380" d="M89.713,110.211a3.252,3.252,0,0,0,2.865,3.2A3.208,3.208,0,0,0,95.8,110.6a4.078,4.078,0,0,0-.253-1.839,3.281,3.281,0,0,0-.593-1.055C93.178,105.695,89.731,107.772,89.713,110.211Z" transform="translate(-60.977 -100.48)" fill="#d36f1c"/>
            </g>
            <g id="Grupo_906" data-name="Grupo 906" transform="translate(95.023 85.23)">
              <path id="Caminho_3381" data-name="Caminho 3381" d="M115.1,105.9a3.252,3.252,0,0,1-2.869,3.2,3.212,3.212,0,0,1-3.223-2.807,4.079,4.079,0,0,1,.253-1.839,3.32,3.32,0,0,1,.6-1.059C111.639,101.389,115.089,103.466,115.1,105.9Z" transform="translate(-97.499 -102.591)" fill="#d36f1c"/>
              <path id="Caminho_3382" data-name="Caminho 3382" d="M119.79,111.075a3.251,3.251,0,0,1-2.869,3.2,3.208,3.208,0,0,1-3.223-2.807,4.079,4.079,0,0,1,.253-1.839,3.287,3.287,0,0,1,.592-1.059C116.325,106.559,119.772,108.629,119.79,111.075Z" transform="translate(-95.209 -100.062)" fill="#d36f1c"/>
              <path id="Caminho_3383" data-name="Caminho 3383" d="M123.924,116.817a3.252,3.252,0,0,1-2.869,3.2,3.212,3.212,0,0,1-3.223-2.807,4.08,4.08,0,0,1,.253-1.839,3.293,3.293,0,0,1,.6-1.059C120.459,112.3,123.9,114.378,123.924,116.817Z" transform="translate(-93.183 -97.249)" fill="#d36f1c"/>
              <path id="Caminho_3384" data-name="Caminho 3384" d="M126.68,124.283a3.251,3.251,0,0,1-2.869,3.2,3.212,3.212,0,0,1-3.223-2.807,4.06,4.06,0,0,1,.253-1.839,3.287,3.287,0,0,1,.6-1.059C123.2,119.767,126.666,121.844,126.68,124.283Z" transform="translate(-91.835 -93.594)" fill="#d36f1c"/>
              <path id="Caminho_3385" data-name="Caminho 3385" d="M120.892,127.436a3.251,3.251,0,0,1-2.869,3.2,3.212,3.212,0,0,1-3.223-2.807,4.079,4.079,0,0,1,.253-1.839,3.321,3.321,0,0,1,.6-1.059C117.427,122.938,120.877,125,120.892,127.436Z" transform="translate(-94.667 -92.044)" fill="#d36f1c"/>
              <path id="Caminho_3386" data-name="Caminho 3386" d="M117.309,119.689a3.252,3.252,0,0,1-2.869,3.2,3.208,3.208,0,0,1-3.223-2.807,4.083,4.083,0,0,1,.253-1.839,3.312,3.312,0,0,1,.6-1.055C113.844,115.17,117.294,117.247,117.309,119.689Z" transform="translate(-96.42 -95.844)" fill="#d36f1c"/>
              <path id="Caminho_3387" data-name="Caminho 3387" d="M113.175,114.519a3.251,3.251,0,0,1-2.869,3.2,3.208,3.208,0,0,1-3.223-2.807,4.087,4.087,0,0,1,.253-1.839,3.273,3.273,0,0,1,.6-1.055C109.717,110,113.157,112.077,113.175,114.519Z" transform="translate(-98.446 -98.372)" fill="#d36f1c"/>
              <path id="Caminho_3388" data-name="Caminho 3388" d="M107.387,110.211a3.252,3.252,0,0,1-2.869,3.2A3.208,3.208,0,0,1,101.3,110.6a4.08,4.08,0,0,1,.253-1.839,3.252,3.252,0,0,1,.6-1.055C103.922,105.695,107.369,107.772,107.387,110.211Z" transform="translate(-101.278 -100.48)" fill="#d36f1c"/>
            </g>
          </g>
        </g>
      </g>
    </g>
    <g id="Grupo_20892" data-name="Grupo 20892" transform="translate(193 9)">
      <circle id="Elipse_254" data-name="Elipse 254" cx="20.5" cy="20.5" r="20.5" transform="translate(51 329)" fill="#f7f3ff"/>
      <path id="Subtração_27" data-name="Subtração 27" d="M2981.563-980.275a20.468,20.468,0,0,1-13.645-5.2c12.012-13.18,21.56-23.122,28.38-29.553a20.4,20.4,0,0,1,5.765,14.253,20.366,20.366,0,0,1-6,14.5A20.366,20.366,0,0,1,2981.563-980.275Z" transform="translate(-2910.063 1350.275)" fill="#320995"/>
      <g id="Elipse_325" data-name="Elipse 325" transform="translate(74 357)" fill="#e2306c" stroke="#e2306c" stroke-width="1">
        <circle cx="2.5" cy="2.5" r="2.5" stroke="none"/>
        <circle cx="2.5" cy="2.5" r="2" fill="none"/>
      </g>
    </g>
  </g>
</svg>
