<svg xmlns="http://www.w3.org/2000/svg" xmlns:xlink="http://www.w3.org/1999/xlink" width="414" height="820" viewBox="0 0 414 820">
  <defs>
    <clipPath id="clip-adicionar-dinheiro-1_1">
      <rect width="414" height="820"/>
    </clipPath>
  </defs>
  <g id="adicionar-dinheiro-1_1" data-name="adicionar-dinheiro-1 – 1" clip-path="url(#clip-adicionar-dinheiro-1_1)">
    <rect width="414" height="820" fill="#320995"/>
    <g id="Grupo_484" data-name="Grupo 484" transform="translate(-4 5)">
      <g id="Grupo_483" data-name="Grupo 483" transform="translate(414.781 575.5) rotate(180)">
        <path id="Caminho_2382" data-name="Caminho 2382" d="M4435.513-2851.89l9.068,9.068-9.068,9.068" transform="translate(-4067.766 3378.822)" fill="none" stroke="#fff" stroke-linecap="round" stroke-width="3"/>
      </g>
    </g>
    <text id="Escolha_uma_opção_para_adicionar_dinheiro" data-name="Escolha uma opção para adicionar dinheiro" transform="translate(55 50)" fill="#fff" font-size="14" font-family="Montserrat-Regular, Montserrat"><tspan x="0" y="0">Escolha uma opção para adicionar dinheiro</tspan></text>
    <g id="Grupo_20279" data-name="Grupo 20279" transform="translate(5 -473)">
      <path id="Caminho_7567" data-name="Caminho 7567" d="M10,0H318a10,10,0,0,1,10,10V50a10,10,0,0,1-10,10H10A10,10,0,0,1,0,50V10A10,10,0,0,1,10,0Z" transform="translate(38 570)" fill="#e2306c"/>
      <text id="PIX" transform="translate(63 596)" fill="#fff" font-size="14" font-family="Roboto-Bold, Roboto" font-weight="700"><tspan x="0" y="0">PIX</tspan></text>
      <text id="Grátis_e_na_hora." data-name="Grátis e na hora." transform="translate(63 615)" fill="#fff" font-size="12" font-family="Roboto-Regular, Roboto"><tspan x="0" y="0">Grátis e na hora.</tspan></text>
    </g>
    <g id="Grupo_20315" data-name="Grupo 20315" transform="translate(5 -404)">
      <path id="Caminho_7568" data-name="Caminho 7568" d="M10,0H318a10,10,0,0,1,10,10V50a10,10,0,0,1-10,10H10A10,10,0,0,1,0,50V10A10,10,0,0,1,10,0Z" transform="translate(38 570)" fill="#e2306c"/>
      <text id="TED" transform="translate(63 596)" fill="#fff" font-size="14" font-family="Roboto-Bold, Roboto" font-weight="700"><tspan x="0" y="0">TED</tspan></text>
      <text id="Grátis_e_creditado_no_mesmo_dia." data-name="Grátis e creditado no mesmo dia." transform="translate(63 615)" fill="#fff" font-size="12" font-family="Roboto-Regular, Roboto"><tspan x="0" y="0">Grátis e creditado no mesmo dia.</tspan></text>
    </g>
    <g id="Grupo_20316" data-name="Grupo 20316" transform="translate(5 -335)">
      <path id="Caminho_7569" data-name="Caminho 7569" d="M10,0H318a10,10,0,0,1,10,10V50a10,10,0,0,1-10,10H10A10,10,0,0,1,0,50V10A10,10,0,0,1,10,0Z" transform="translate(38 570)" fill="#e2306c"/>
      <text id="Boleto_Bancário" data-name="Boleto Bancário" transform="translate(63 596)" fill="#fff" font-size="14" font-family="Roboto-Bold, Roboto" font-weight="700"><tspan x="0" y="0">Boleto Bancário</tspan></text>
      <text id="Grátis_e_creditado_em_até_2_dias_úteis." data-name="Grátis e creditado em até 2 dias úteis." transform="translate(63 615)" fill="#fff" font-size="12" font-family="Roboto-Regular, Roboto"><tspan x="0" y="0">Grátis e creditado em até 2 dias úteis.</tspan></text>
    </g>
    <g id="Grupo_20328" data-name="Grupo 20328" transform="translate(5 -266)">
      <rect id="Retângulo_232" data-name="Retângulo 232" width="328" height="60" rx="10" transform="translate(38 570)" fill="#e2306c"/>
      <text id="Lotérica" transform="translate(63 596)" fill="#fff" font-size="14" font-family="Roboto-Bold, Roboto" font-weight="700"><tspan x="0" y="0">Lotérica</tspan></text>
      <text id="Grátis_e_creditado_em_até_1_hora." data-name="Grátis e creditado em até 1 hora." transform="translate(63 615)" fill="#fff" font-size="12" font-family="Roboto-Regular, Roboto"><tspan x="0" y="0">Grátis e creditado em até 1 hora.</tspan></text>
    </g>
  </g>
</svg>
