<svg xmlns="http://www.w3.org/2000/svg" xmlns:xlink="http://www.w3.org/1999/xlink" width="414" height="831" viewBox="0 0 414 831">
  <defs>
    <filter id="C" x="188.026" y="394.636" width="110.317" height="79.864" filterUnits="userSpaceOnUse">
      <feOffset dy="3" input="SourceAlpha"/>
      <feGaussianBlur stdDeviation="3" result="blur"/>
      <feFlood flood-color="#e2306c"/>
      <feComposite operator="in" in2="blur"/>
      <feComposite in="SourceGraphic"/>
    </filter>
    <clipPath id="clip-Splashscreen_1">
      <rect width="414" height="831"/>
    </clipPath>
  </defs>
  <g id="Splashscreen_1" data-name="Splashscreen – 1" clip-path="url(#clip-Splashscreen_1)">
    <rect width="414" height="831" fill="#320995"/>
    <g id="logo">
      <g transform="matrix(1, 0, 0, 1, 0, 0)" filter="url(#C)">
        <g id="C-2" data-name="C" transform="translate(197.03 423.94) rotate(-16)" fill="#e2306c">
          <path d="M 42.26760482788086 39.61750411987305 C 31.05000305175781 39.61750411987305 20.51174736022949 37.548095703125 12.59410285949707 33.79047393798828 C 8.773102760314941 31.97709465026855 5.778947353363037 29.87193870544434 3.69480299949646 27.53346061706543 C 1.574891805648804 25.15481758117676 0.5000029802322388 22.63980484008789 0.5000029802322388 20.05828285217285 C 0.5000029802322388 17.47678375244141 1.574891805648804 14.961838722229 3.69480299949646 12.58330535888672 C 5.778924942016602 10.24492835998535 8.773080825805664 8.139872550964355 12.59409141540527 6.326605796813965 C 20.51165771484375 2.569261312484741 31.04991340637207 0.5000057220458984 42.26760482788086 0.5000057220458984 C 53.48490142822266 0.5000057220458984 64.02288055419922 2.569261312484741 71.94032287597656 6.326594829559326 C 75.76131439208984 8.139894485473633 78.75543975830078 10.24495029449463 80.83951568603516 12.58330535888672 C 82.95942687988281 14.961838722229 84.03431701660156 17.47678375244141 84.03431701660156 20.05828285217285 C 84.03431701660156 22.63980484008789 82.95942687988281 25.15481758117676 80.83951568603516 27.53346061706543 C 78.75535583496094 29.87195014953613 75.76123809814453 31.97711753845215 71.94031524658203 33.79047393798828 C 64.02278137207031 37.548095703125 53.48480224609375 39.61750411987305 42.26760482788086 39.61750411987305 Z M 39.8096923828125 2.667105674743652 C 30.69100379943848 2.667105674743652 22.11056900024414 4.051916599273682 15.64899158477783 6.566427707672119 C 12.47625827789307 7.801094532012939 9.978180885314941 9.245383262634277 8.224169731140137 10.85916137695312 C 6.348658561706543 12.58469486236572 5.397703170776367 14.43672752380371 5.397703170776367 16.36381721496582 C 5.397703170776367 18.29088401794434 6.348658561706543 20.14291763305664 8.224169731140137 21.86846160888672 C 9.978147506713867 23.48222732543945 12.47622489929199 24.92650604248047 15.64899158477783 26.16119384765625 C 22.11055755615234 28.67570495605469 30.69099235534668 30.06050491333008 39.8096923828125 30.06050491333008 C 48.92839050292969 30.06050491333008 57.50882339477539 28.67570495605469 63.97040176391602 26.16120529174805 C 67.14315795898438 24.92651748657227 69.6412353515625 23.48223876953125 71.39524841308594 21.86846160888672 C 73.27075958251953 20.14291763305664 74.22171783447266 18.29088401794434 74.22171783447266 16.36381721496582 C 74.22171783447266 14.43672752380371 73.27075958251953 12.58469486236572 71.39524841308594 10.85916137695312 C 69.64118194580078 9.245349884033203 67.14310455322266 7.801072597503662 63.97039031982422 6.566427707672119 C 57.50881576538086 4.051916599273682 48.92837905883789 2.667105674743652 39.8096923828125 2.667105674743652 Z" stroke="none"/>
          <path d="M 42.26760482788086 39.11750411987305 C 53.41217041015625 39.11750411987305 63.87401580810547 37.06524276733398 71.72594451904297 33.33876037597656 C 75.48616027832031 31.55420875549316 78.42681884765625 29.48909187316895 80.46623992919922 27.20079803466797 C 82.5020751953125 24.91650390625 83.53432464599609 22.51342010498047 83.53432464599609 20.05829048156738 C 83.53432464599609 17.60319709777832 82.5020751953125 15.20017337799072 80.46625518798828 12.91597366333008 C 78.42688751220703 10.62778568267822 75.48622894287109 8.562773704528809 71.72595977783203 6.77831506729126 C 63.8741340637207 3.052103042602539 53.41228866577148 0.9999971985816956 42.26760482788086 0.9999971985816956 C 31.12253570556641 0.9999971985816956 20.6604061126709 3.052114963531494 12.80845260620117 6.77831506729126 C 9.048182487487793 8.562762260437012 6.10748815536499 10.62776184082031 4.068064212799072 12.91597366333008 C 2.032252550125122 15.20016193389893 1.000005602836609 17.60318565368652 1.000005602836609 20.05829048156738 C 1.000005602836609 22.5134334564209 2.032252550125122 24.9165153503418 4.068064212799072 27.20078468322754 C 6.107511520385742 29.48908042907715 9.048205375671387 31.55419731140137 12.80847644805908 33.33876037597656 C 20.6605110168457 37.06524276733398 31.12262916564941 39.11750411987305 42.26760482788086 39.11750411987305 M 39.80968856811523 2.167114973068237 C 48.98892211914062 2.167114973068237 57.63375854492188 3.564008951187134 64.1517333984375 6.100467681884766 C 67.38272094726562 7.357797145843506 69.93370056152344 8.835043907165527 71.73379516601562 10.49119758605957 C 73.71643829345703 12.31530284881592 74.72172546386719 14.29113864898682 74.72172546386719 16.36380958557129 C 74.72172546386719 18.43646812438965 73.71643829345703 20.41230392456055 71.73379516601562 22.2364330291748 C 69.93370819091797 23.89256286621094 67.38273620605469 25.36982154846191 64.1517333984375 26.62714958190918 C 57.63374710083008 29.16361999511719 48.98889923095703 30.56051445007324 39.80968856811523 30.56051445007324 C 30.63046455383301 30.56051445007324 21.98563003540039 29.16361999511719 15.46766471862793 26.62714958190918 C 12.23661708831787 25.36979675292969 9.685652732849121 23.89253807067871 7.885629177093506 22.2364330291748 C 5.902993679046631 20.41231536865234 4.897711277008057 18.43647956848145 4.897711277008057 16.36380958557129 C 4.897711277008057 14.2911262512207 5.902993679046631 12.31530284881592 7.885617256164551 10.49119758605957 C 9.685664176940918 8.835067749023438 12.23662948608398 7.357809066772461 15.46766471862793 6.100467681884766 C 21.98561668395996 3.564008951187134 30.63044166564941 2.167114973068237 39.80968856811523 2.167114973068237 M 42.26760482788086 40.11750411987305 C 30.97738265991211 40.11750411987305 20.36300468444824 38.03094863891602 12.37972354888916 34.24218368530273 C 8.498017311096191 32.39998626708984 5.450405597686768 30.25477409362793 3.321534872055054 27.86613845825195 C 1.117523193359375 25.39313888549805 5.567124389926903e-06 22.76619720458984 5.567124389926903e-06 20.05829048156738 C 5.567124389926903e-06 17.35039710998535 1.117523193359375 14.72352695465088 3.321534872055054 12.25062084197998 C 5.450382232666016 9.862079620361328 8.497993469238281 7.716961860656738 12.37972354888916 5.874879360198975 C 20.36291122436523 2.086397171020508 30.97728729248047 -2.7885885174328e-06 42.26760482788086 -2.7885885174328e-06 C 53.55752182006836 -2.7885885174328e-06 64.171630859375 2.086397171020508 72.15470123291016 5.874879360198975 C 76.03639221191406 7.716973781585693 79.083984375 9.862091064453125 81.21278381347656 12.25062084197998 C 83.41679382324219 14.72352695465088 84.53432464599609 17.35039710998535 84.53432464599609 20.05829048156738 C 84.53432464599609 22.76619720458984 83.41679382324219 25.39313888549805 81.21278381347656 27.86613845825195 C 79.08394622802734 30.25476264953613 76.03636932373047 32.39998626708984 72.15470123291016 34.24218368530273 C 64.17152404785156 38.03094863891602 53.55743026733398 40.11750411987305 42.26760482788086 40.11750411987305 Z M 39.80968856811523 3.167114973068237 C 30.75152397155762 3.167114973068237 22.23547554016113 4.539820671081543 15.83032321929932 7.032385349273682 C 12.71588802337646 8.244361877441406 10.2706995010376 9.655668258666992 8.562699317932129 11.2271146774292 C 6.794334888458252 12.854079246521 5.897711277008057 14.58231449127197 5.897711277008057 16.36380958557129 C 5.897711277008057 18.14530372619629 6.794334888458252 19.87353897094727 8.562699317932129 21.50051498413086 C 10.270676612854 23.07193756103516 12.71586418151855 24.48324394226074 15.83032321929932 25.69523239135742 C 22.23547554016113 28.18779754638672 30.75152397155762 29.56051445007324 39.80968856811523 29.56051445007324 C 48.86786270141602 29.56051445007324 57.3838996887207 28.18779754638672 63.78907775878906 25.69523239135742 C 66.90351104736328 24.48325538635254 69.34870147705078 23.07195091247559 71.05672454833984 21.50051498413086 C 72.82508850097656 19.87353897094727 73.72172546386719 18.14529228210449 73.72172546386719 16.36380958557129 C 73.72172546386719 14.58232688903809 72.82508850097656 12.854079246521 71.05672454833984 11.2271146774292 C 69.34867858886719 9.655655860900879 66.90348815917969 8.244350433349609 63.78907775878906 7.032385349273682 C 57.3838996887207 4.539820671081543 48.86786270141602 3.167114973068237 39.80968856811523 3.167114973068237 Z" stroke="none" fill="#e2306c"/>
        </g>
      </g>
      <g id="kk" transform="translate(-50.345 1.712)">
        <text id="k" transform="translate(258.869 432.766) rotate(-16)" fill="#fff" font-size="91" font-family="Muli-SemiBold, Muli" font-weight="600" letter-spacing="0.016em"><tspan x="0" y="0">k</tspan></text>
      </g>
      <g id="ban">
        <text id="ban-2" data-name="ban" transform="translate(126.655 400.143)" fill="none" stroke="#fff" stroke-width="1" font-size="38" font-family="Montserrat-Bold, Montserrat" font-weight="700" letter-spacing="0.016em"><tspan x="0" y="0">ban</tspan></text>
        <text id="gee" transform="translate(126.655 427.784)" fill="#fff" font-size="42" font-family="Montserrat-Bold, Montserrat" font-weight="700" letter-spacing="0.016em"><tspan x="0" y="0">gee</tspan></text>
      </g>
    </g>
    <text id="Projeto_para_fins_de_estudo_Prof.:_Lucas_Marte_Aluno:_Fernando_C._Pagani_" data-name="Projeto para fins de estudo
Prof.: Lucas Marte
Aluno: Fernando C. Pagani " transform="translate(207 632)" fill="#fff" font-size="13" font-family="Roboto-Regular, Roboto"><tspan x="-77.454" y="0">Projeto para fins de estudo</tspan><tspan x="-53.07" y="18">Prof.: Lucas Marte</tspan><tspan x="-77.911" y="36">Aluno: Fernando C. Pagani </tspan></text>
  </g>
</svg>
