<svg xmlns="http://www.w3.org/2000/svg" xmlns:xlink="http://www.w3.org/1999/xlink" width="414" height="831" viewBox="0 0 414 831">
  <defs>
    <filter id="C" x="219.715" y="415.225" width="44.065" height="35.467" filterUnits="userSpaceOnUse">
      <feOffset dy="3" input="SourceAlpha"/>
      <feGaussianBlur stdDeviation="3" result="blur"/>
      <feFlood flood-color="#e2306c"/>
      <feComposite operator="in" in2="blur"/>
      <feComposite in="SourceGraphic"/>
    </filter>
    <clipPath id="clip-Splashscreen_3">
      <rect width="414" height="831"/>
    </clipPath>
  </defs>
  <g id="Splashscreen_3" data-name="Splashscreen – 3" clip-path="url(#clip-Splashscreen_3)">
    <rect width="414" height="831" fill="#320995"/>
    <g id="logo" opacity="0">
      <g transform="matrix(1, 0, 0, 1, 0, 0)" filter="url(#C)">
        <g id="C-2" data-name="C" transform="translate(228.72 427.8) rotate(-16)" fill="#e2306c">
          <path d="M 11.93394184112549 10.82687950134277 C 8.818851470947266 10.82687950134277 5.898091793060303 10.25490951538086 3.709701776504517 9.21631908416748 C 2.674451589584351 8.725008964538574 1.867441654205322 8.159369468688965 1.311081647872925 7.535129070281982 C 0.7728917002677917 6.931239128112793 0.5000016689300537 6.301469326019287 0.5000016689300537 5.663309097290039 C 0.5000016689300537 5.025159358978271 0.7728917002677917 4.39539909362793 1.311081647872925 3.791539192199707 C 1.330742716789246 3.769479990005493 1.350765943527222 3.747441530227661 1.371052145957947 3.725529432296753 C 1.234109878540039 4.01428747177124 1.16517162322998 4.313129425048828 1.16517162322998 4.620199203491211 C 1.16517162322998 5.268779277801514 1.472661733627319 5.880539417266846 2.079091787338257 6.438469409942627 C 2.6073317527771 6.924489498138428 3.350601673126221 7.355939388275146 4.288251876831055 7.720819473266602 C 6.153081893920898 8.446529388427734 8.621921539306641 8.846189498901367 11.23997211456299 8.846189498901367 C 13.85802173614502 8.846189498901367 16.32686233520508 8.446529388427734 18.19170188903809 7.720819473266602 C 19.12931251525879 7.355959415435791 19.87258148193359 6.924509048461914 20.40087127685547 6.438469409942627 C 21.00730133056641 5.880529403686523 21.31478118896484 5.268779277801514 21.31478118896484 4.620199203491211 C 21.31478118896484 3.971619367599487 21.00730133056641 3.359869241714478 20.40088081359863 2.801929235458374 C 19.87261199951172 2.31589937210083 19.12933158874512 1.884459257125854 18.19170188903809 1.519579291343689 C 17.30775451660156 1.175593495368958 16.28805160522461 0.9048531055450439 15.18114376068115 0.7152169942855835 C 17.04685974121094 0.9694936275482178 18.75339508056641 1.443876147270203 20.15797233581543 2.110439300537109 C 21.1932315826416 2.601729393005371 22.00023078918457 3.167339324951172 22.55657196044922 3.791549205780029 C 23.09475135803223 4.39539909362793 23.36764144897461 5.025159358978271 23.36764144897461 5.663309097290039 C 23.36764144897461 6.301469326019287 23.09475135803223 6.931239128112793 22.55656242370605 7.535129070281982 C 22.00021171569824 8.159379005432129 21.19320106506348 8.725008964538574 20.15796089172363 9.21631908416748 C 17.96960258483887 10.25490951538086 15.04892158508301 10.82687950134277 11.93394184112549 10.82687950134277 Z" stroke="none"/>
          <path d="M 11.93394184112549 10.32687950134277 C 14.97629165649414 10.32687950134277 17.82084083557129 9.772059440612793 19.9435920715332 8.764609336853027 C 20.91811180114746 8.302119255065918 21.67165184020996 7.776529312133789 22.18328094482422 7.202469348907471 C 22.63739204406738 6.692929267883301 22.86764144897461 6.175079345703125 22.86764144897461 5.663309097290039 C 22.86764144897461 5.151549339294434 22.63739204406738 4.633719444274902 22.18330192565918 4.124219417572021 C 22.00942993164062 3.929138660430908 21.80765914916992 3.739688158035278 21.5787296295166 3.556377649307251 C 21.76196479797363 3.960994482040405 21.81478118896484 4.329741954803467 21.81478118896484 4.620199203491211 C 21.81478118896484 5.166189193725586 21.62821197509766 5.988689422607422 20.73940086364746 6.806429386138916 C 20.16508102416992 7.334819316864014 19.36892127990723 7.799239158630371 18.37303161621094 8.186779022216797 C 16.4517822265625 8.934439659118652 13.91854190826416 9.346189498901367 11.23997211456299 9.346189498901367 C 8.561391830444336 9.346189498901367 6.028161525726318 8.934439659118652 4.106921672821045 8.186779022216797 C 3.110991716384888 7.799209117889404 2.314821720123291 7.334789276123047 1.740551710128784 6.806429386138916 C 1.413161039352417 6.505220890045166 1.181071996688843 6.203402996063232 1.018468856811523 5.914957523345947 C 1.081348776817322 6.344325065612793 1.304556846618652 6.776304721832275 1.684341669082642 7.202449321746826 C 2.19599175453186 7.776529312133789 2.949541568756104 8.302109718322754 3.924071788787842 8.764609336853027 C 6.04686164855957 9.772048950195312 8.891481399536133 10.32687950134277 11.93394184112549 10.32687950134277 M 11.93394184112549 11.32687950134277 C 8.746232032775879 11.32687950134277 5.749341487884521 10.73775959014893 3.495321750640869 9.668028831481934 C 2.399351596832275 9.147899627685547 1.538881659507751 8.542209625244141 0.9378116726875305 7.867799282073975 C 0.3155316710472107 7.169559478759766 1.678161652307608e-06 6.427869319915771 1.678161652307608e-06 5.663309097290039 C 1.678161652307608e-06 4.898759365081787 0.3155316710472107 4.157079219818115 0.9378116726875305 3.458869218826294 C 1.538881659507751 2.784489154815674 2.399351596832275 2.178829193115234 3.495321750640869 1.658729314804077 C 5.749321460723877 0.5890792608261108 8.746212005615234 -7.261657515300612e-07 11.93394184112549 -7.261657515300612e-07 C 15.12157154083252 -7.261657515300612e-07 18.11838150024414 0.5890792608261108 20.37234115600586 1.658729314804077 C 21.46831130981445 2.178829193115234 22.32878112792969 2.784489154815674 22.92983245849609 3.458869218826294 C 23.5521125793457 4.157079219818115 23.86764144897461 4.898759365081787 23.86764144897461 5.663309097290039 C 23.86764144897461 6.427869319915771 23.5521125793457 7.169559478759766 22.92983245849609 7.867799282073975 C 22.32877159118652 8.542209625244141 21.46831130981445 9.147899627685547 20.37234115600586 9.668028831481934 C 18.11836242675781 10.73775959014893 15.12154197692871 11.32687950134277 11.93394184112549 11.32687950134277 Z M 11.23997211456299 0.8942092657089233 C 8.68247127532959 0.8942092657089233 6.278021812438965 1.281789302825928 4.469581604003906 1.985539317131042 C 3.590241670608521 2.327739238739014 2.899861574172974 2.726209163665771 2.417621612548828 3.169889211654663 C 1.918331623077393 3.629249334335327 1.66517162322998 4.117209434509277 1.66517162322998 4.620199203491211 C 1.66517162322998 5.123189449310303 1.918331623077393 5.611149311065674 2.417621612548828 6.070509433746338 C 2.899851560592651 6.51418924331665 3.590231657028198 6.912659168243408 4.469581604003906 7.254859447479248 C 6.278021812438965 7.958619117736816 8.68247127532959 8.346189498901367 11.23997211456299 8.346189498901367 C 13.79748153686523 8.346189498901367 16.2019214630127 7.958619117736816 18.01037216186523 7.254859447479248 C 18.88971138000488 6.91266918182373 19.58009147644043 6.51418924331665 20.06234169006348 6.070509433746338 C 20.56162261962891 5.611149311065674 20.81478118896484 5.123189449310303 20.81478118896484 4.620199203491211 C 20.81478118896484 4.117209434509277 20.56162261962891 3.629249334335327 20.06234169006348 3.169889211654663 C 19.58009147644043 2.726199388504028 18.88970184326172 2.327729225158691 18.01037216186523 1.985539317131042 C 16.2019214630127 1.281789302825928 13.79748153686523 0.8942092657089233 11.23997211456299 0.8942092657089233 Z" stroke="none" fill="#e2306c"/>
        </g>
      </g>
      <g id="kk" transform="translate(645.679 320.285) rotate(110)">
        <text id="k" transform="translate(238.196 349.982) rotate(-16)" fill="#fff" font-size="16" font-family="Muli-SemiBold, Muli" font-weight="600" letter-spacing="0.016em"><tspan x="0" y="0">k</tspan></text>
      </g>
      <g id="ban" transform="translate(177 -5.784)">
        <text id="ban-2" data-name="ban" transform="translate(126.655 400.143)" fill="none" stroke="#fff" stroke-width="1" font-size="38" font-family="Montserrat-Bold, Montserrat" font-weight="700" letter-spacing="0.016em"><tspan x="0" y="0">ban</tspan></text>
        <text id="gee" transform="translate(126.655 427.784)" fill="#fff" font-size="42" font-family="Montserrat-Bold, Montserrat" font-weight="700" letter-spacing="0.016em"><tspan x="0" y="0">gee</tspan></text>
      </g>
    </g>
  </g>
</svg>
